<svg id="Слой_1" data-name="Слой 1" xmlns="http://www.w3.org/2000/svg" viewBox="0 0 151.44 86.94"><defs><style>.cls-1{fill:#565da4;}.cls-2{fill:#5e70b2;}.cls-3{fill:#201600;}.cls-4{fill:#07080a;}.cls-5{fill:#080a0b;}.cls-6{fill:#171a1c;opacity:0.58;}.cls-7{fill:#f0bc47;}.cls-8{fill:#19191a;}.cls-9{fill:#eee;}.cls-10{fill:#cbcbcb;}.cls-11{fill:gray;}.cls-12{fill:#666;}</style></defs><title>logotype-small</title><path class="cls-1" d="M176.71,354.41c-1.44-1.35-9.62-4.08-9.62-4.08s-.81-.65-.76-.74,3.36.07,3.63-.08,4-1,2.11-3.91-4-3.78-5.62-3.78-4.4.67-5.1,1.7a5.38,5.38,0,0,0,.1,4.67c.72.9-3.41-3-3.41-3a12.4,12.4,0,0,1-2.45-.07c-.35-.17-4.75-10.5-9.07-12.35a39.88,39.88,0,0,0-6.39-2.11c-1.33-.31-2.35-.47-2.89-.54-1.23-.14-9.16,0-9.16,0s-2.09-1.66-13.24-1.76c-11.14.1-13.23,1.76-13.23,1.76s-7.93-.14-9.16,0a36.73,36.73,0,0,0-9.28,2.65c-4.32,1.85-8.72,12.18-9.07,12.35a12.4,12.4,0,0,1-2.45.07s-4.13,3.86-3.41,3a5.38,5.38,0,0,0,.1-4.67c-.7-1-3.48-1.7-5.1-1.7s-3.7.86-5.62,3.78,1.83,3.76,2.11,3.91,3.58,0,3.63.08-.76.74-.76.74-8.19,2.73-9.63,4.08-.37,38.52-.28,41.84,2.38,3.55,2.38,3.55H73.13c1.73,0,1.05-.95,1.05-.95h81.33s-.68.95,1.05.95h18.06s2.3-.23,2.38-3.55c.05-2,.45-16,.46-27.25C177.47,361.35,177.3,355,176.71,354.41Z" transform="translate(-27.02 -320.63)"/><path class="cls-2" d="M166.57,350.82s-.81-.65-.76-.74,3.36.07,3.63-.08,4-1,2.11-3.91-4-3.78-5.62-3.78-4.4.67-5.1,1.7a5.38,5.38,0,0,0,.1,4.67c.72.9-3.41-3-3.41-3a12.29,12.29,0,0,1-2.45-.06c-.35-.17-4.75-10.5-9.07-12.35a39.88,39.88,0,0,0-6.39-2.11h0s3.12,17.1-1.35,17.93-4.08.7-6.77,2.43-25,9.84-26.36,10.85-10.32,5.34-10.91,11.38,82.71-4.3,82.72-4.3c0-7.65-.16-14-.75-14.59C174.75,353.55,166.57,350.82,166.57,350.82Z" transform="translate(-27.02 -320.63)"/><path class="cls-3" d="M156.56,400.8a2.08,2.08,0,0,1-2-.91l0,0H75.17v0a2.08,2.08,0,0,1-2,.91H55.07c-1.2-.12-3.3-1.2-3.38-4.52l0-.9c-1-40.13,0-41.16.63-41.71,1-.93,4.41-2.29,7-3.25l-.06,0h0c-.67-.23-2.45-.84-3-2.38a3.29,3.29,0,0,1,.57-2.94c2.29-3.5,4.77-4.24,6.45-4.24s4.9.63,5.93,2.14a5.09,5.09,0,0,1,.65,2.6L71,344.49l.31-.28.42,0c.67,0,1.39,0,1.8,0l.48-.92c1.65-3.2,5.09-9.85,8.8-11.44a37.72,37.72,0,0,1,9.55-2.72c1.17-.14,7.43,0,9,0,1-.54,4.23-1.67,13.5-1.76,9.27.09,12.5,1.22,13.51,1.76,1.58,0,7.84-.13,9,0a28.85,28.85,0,0,1,3,.56,40.59,40.59,0,0,1,6.55,2.16c3.71,1.59,7.15,8.24,8.8,11.44l.48.92c.43,0,1.19,0,1.8,0l.42,0,.31.28,1.15,1.07a5.09,5.09,0,0,1,.65-2.6c1-1.51,4.37-2.14,5.93-2.14s4.16.74,6.45,4.24a3.25,3.25,0,0,1,.56,2.94c-.52,1.54-2.3,2.15-3,2.38l-.11,0c2.61,1,6,2.32,7,3.25.48.45,1.07,1,1.06,15.33,0,6.77-.15,15.64-.43,26.38l0,.9c-.08,3.32-2.18,4.4-3.28,4.52ZM53.76,355.05c-.29.91-1,6.51-.1,40.28l0,.9c.06,2.4,1.47,2.57,1.48,2.57H72.91l-.68-.95h85.23l-.68.95h17.76c.26-.06,1.41-.42,1.46-2.57l0-.9c.28-10.72.42-19.58.43-26.34,0-11-.37-13.42-.53-13.94-1.12-.87-6-2.7-9.16-3.77l-.17-.06-.13-.11c-.7-.55-1.49-1.18-1-2,.32-.55.58-.54,2.31-.52.6,0,1.58,0,1.89,0l.18-.07c.38-.13,1.52-.52,1.73-1.14a1.54,1.54,0,0,0-.34-1.2c-1.8-2.75-3.59-3.33-4.78-3.33-1.69,0-3.91.74-4.27,1.27a4.61,4.61,0,0,0,0,3.47,1,1,0,0,1,0,1.5c-.75.69-.84.64-4.55-2.82-2,.08-2.34-.1-2.5-.18-.38-.18-.48-.36-1.22-1.81-1.31-2.52-4.77-9.22-7.81-10.52a38.56,38.56,0,0,0-6.23-2.05,23.7,23.7,0,0,0-2.78-.52c-.85-.1-5.86-.05-9,0h-.36l-.28-.22h0s-2.35-1.45-12.62-1.55c-10.3.1-12.62,1.56-12.65,1.57l-.25.18h-.35c-3.16-.05-8.17-.1-9,0a35.36,35.36,0,0,0-9,2.57c-3,1.3-6.5,8-7.81,10.52-.74,1.45-.84,1.63-1.22,1.81-.16.08-.53.26-2.5.18-3.71,3.46-3.8,3.51-4.55,2.82a1,1,0,0,1,0-1.5,4.56,4.56,0,0,0,.06-3.47c-.36-.53-2.58-1.27-4.27-1.27-1.19,0-3,.58-4.78,3.33a1.55,1.55,0,0,0-.34,1.2c.21.62,1.35,1,1.72,1.14l.19.07c.31,0,1.29,0,1.89,0,1.73,0,2,0,2.31.52.48.84-.31,1.47-1,2l-.14.11-.16.06C59.71,352.35,54.88,354.18,53.76,355.05Zm122.27.09Zm-.13-.18ZM60.1,348.59l.1,0Zm109.49,0-.1,0Z" transform="translate(-27.02 -320.63)"/><ellipse class="cls-4" cx="88.42" cy="37.3" rx="8.36" ry="1.4"/><path class="cls-5" d="M57.82,365.3a1.62,1.62,0,0,0,1.23,1.38,52.12,52.12,0,0,0,10.41,1c8.14.12,14,.38,14.71,0s2.72-2.59-2.23-5.14S56,350.21,57.82,365.3Z" transform="translate(-27.02 -320.63)"/><path class="cls-5" d="M171.13,365.3a1.6,1.6,0,0,1-1.23,1.38,52,52,0,0,1-10.4,1c-8.14.12-14.05.38-14.72,0s-2.71-2.59,2.24-5.14S173,350.21,171.13,365.3Z" transform="translate(-27.02 -320.63)"/><path class="cls-6" d="M114.84,333.31s-25.66-.37-30.83,2.56c-1.88,1.07-7.19,9.71-9.25,13.15a.93.93,0,0,0,.8,1.4H89.38s6.57-1.4,7.27-1.79,18.19,0,18.19,0,6.38-.14,11.59-.16L136,334C126.75,333.14,114.84,333.31,114.84,333.31Z" transform="translate(-27.02 -320.63)"/><path class="cls-6" d="M133,348.63c.7.39,7.27,1.79,7.27,1.79h13.82a.93.93,0,0,0,.8-1.4c-2.06-3.44-7.37-12.08-9.26-13.15-1.64-.94-5.38-1.53-9.7-1.92l-9.54,14.52A51.82,51.82,0,0,1,133,348.63Z" transform="translate(-27.02 -320.63)"/><path class="cls-6" d="M133,348.63c.7.39,7.27,1.79,7.27,1.79h13.82a.93.93,0,0,0,.8-1.4c-2.06-3.44-7.37-12.08-9.26-13.15-1.64-.94-5.38-1.53-9.7-1.92l-9.54,14.52A51.82,51.82,0,0,1,133,348.63Z" transform="translate(-27.02 -320.63)"/><circle class="cls-5" cx="38.35" cy="59.47" r="4.43"/><circle class="cls-5" cx="138.44" cy="59.47" r="4.43"/><path class="cls-5" d="M109.05,383.69,79.16,383a.32.32,0,0,0-.25.52L80.44,387a.33.33,0,0,0,.25.12l28.36.8a.32.32,0,0,0,.33-.31V384A.33.33,0,0,0,109.05,383.69Z" transform="translate(-27.02 -320.63)"/><path class="cls-5" d="M108.59,380.12l-29.53-1.07a.32.32,0,0,1-.24-.52l2.2-2.7a.3.3,0,0,1,.25-.12H108.6a.32.32,0,0,1,.33.32v3.77A.32.32,0,0,1,108.59,380.12Z" transform="translate(-27.02 -320.63)"/><path class="cls-5" d="M121.1,380.12l29.53-1.07a.32.32,0,0,0,.23-.52l-2.19-2.7a.32.32,0,0,0-.25-.12H121.08a.32.32,0,0,0-.32.32v3.77A.32.32,0,0,0,121.1,380.12Z" transform="translate(-27.02 -320.63)"/><path class="cls-5" d="M120.63,383.69l29.9-.71a.32.32,0,0,1,.25.52L149.25,387a.33.33,0,0,1-.25.12l-28.36.8a.32.32,0,0,1-.33-.31V384A.32.32,0,0,1,120.63,383.69Z" transform="translate(-27.02 -320.63)"/><path class="cls-5" d="M151.52,391.85l-36.68,1.53-36.67-1.53a.34.34,0,0,0-.31.5l2,3.71s31.7.91,35,.65c3.26.26,35-.65,35-.65l2-3.71A.34.34,0,0,0,151.52,391.85Z" transform="translate(-27.02 -320.63)"/><path class="cls-7" d="M124.08,331.19h0Z" transform="translate(-27.02 -320.63)"/><path class="cls-3" d="M121.89,331.34h-13.7c-.58,0-.78-.49-.27-.67l1.56-.55a.87.87,0,0,1,.28-.05h10.56a.81.81,0,0,1,.27.05l1.57.55C122.67,330.84,122.47,331.34,121.89,331.34Z" transform="translate(-27.02 -320.63)"/><path class="cls-8" d="M27,367v-5.51c.15-.08.09-.23.1-.34a44.39,44.39,0,0,1,1.05-7.06,52.07,52.07,0,0,1,2-6.43L32,343.93c.74-1.35,1.53-2.65,2.34-3.95a2.72,2.72,0,0,0,.47-.69l.89-1.24a52,52,0,0,1,4.51-5.1c1.36-1.31,2.81-2.51,4.28-3.69l1.24-.89a3,3,0,0,0,.69-.47c1.29-.81,2.61-1.6,4-2.34l3.78-1.76,4.06-1.43a13.19,13.19,0,0,0,1.74-.48l.28,0a44.76,44.76,0,0,1,5.63-1,8.66,8.66,0,0,0,2-.25h5.41c.06.15.19.09.29.1A44.36,44.36,0,0,1,82,322.17c1.68.46,3.32,1.06,5,1.65l3.75,1.76c1.35.76,2.69,1.54,4,2.38l.6.4,1.33,1c1.34,1.08,2.67,2.17,3.92,3.35a52.87,52.87,0,0,1,4.78,5.36l1,1.35a1.91,1.91,0,0,0,.39.58c.84,1.34,1.65,2.69,2.41,4.07l1.69,3.66,1.41,4,.49,1.83A50.06,50.06,0,0,1,114,362.3v3.88a52.82,52.82,0,0,1-.91,7,49.5,49.5,0,0,1-2.27,7.44L109,384.34q-1.12,2-2.37,4l-.33.49-1,1.45c-1.08,1.33-2.17,2.66-3.35,3.9a51.09,51.09,0,0,1-5.27,4.71l-.09.08-.1.07-1.26.9-.49.33q-2,1.25-4,2.37L87,404.38l-4.06,1.44a11.48,11.48,0,0,0-1.74.48.61.61,0,0,0-.19,0,47.19,47.19,0,0,1-8.61,1.26H68.6c-1.6-.14-3.2-.22-4.79-.5-1.31-.23-2.61-.5-3.91-.76l-1.82-.5-4-1.41-3.86-1.79-3.88-2.3a1.86,1.86,0,0,0-.57-.39l-1.36-1c-1.09-.89-2.19-1.76-3.24-2.71-1.42-1.3-2.72-2.72-4-4.15a1.5,1.5,0,0,0-.4-.47l-1.05-1.36-1-1.34a1.57,1.57,0,0,0-.34-.51.05.05,0,0,0,0-.06l0,0c-.83-1.33-1.65-2.67-2.4-4l-1.73-3.7-1.37-3.87-.07-.21,0,0a.1.1,0,0,0,0-.05l-.45-1.65a2,2,0,0,0,0-.24,44.77,44.77,0,0,1-1-5.78A5.31,5.31,0,0,0,27,367Zm79.18-2.9a35.71,35.71,0,1,0-35.8,35.67A35.71,35.71,0,0,0,106.2,364.14Z" transform="translate(-27.02 -320.63)"/><path class="cls-9" d="M106.2,364.14A35.71,35.71,0,1,1,70.55,328.4,35.71,35.71,0,0,1,106.2,364.14ZM76.05,331.75a35.58,35.58,0,0,0-6.1-.46,36.27,36.27,0,0,0-5.6.56c-.82,0-1.58.36-2.41.42-1.47.12-2.94.37-4.42.54-.33,0-.39.15-.26.43a1.3,1.3,0,0,1,.22.72,34.53,34.53,0,0,0-7.65,4.65,37.87,37.87,0,0,0-4.13,4c-.27,0-.41-.16-.57-.32-.43-.43-.44-.43-.71.14-.47,1-1,2-1.38,3-.48,1.18-1.13,2.29-1.61,3.48a32.82,32.82,0,0,0-3.5,11.23.9.9,0,0,0-.08.21,16.53,16.53,0,0,1-.22,2c-.3,1.22-.5,2.47-.75,3.7s-.21,1.13.95,1.15a32.27,32.27,0,0,0,1.06,5.76,33.74,33.74,0,0,0,3.5,8.17c0,.24-.27.25-.41.36-.52.38-.54.39-.07.83l4.87,4.58A1.43,1.43,0,0,0,47,387a31.65,31.65,0,0,0,9.33,6.72c.07.2.26.23.42.29a17.87,17.87,0,0,1,2.49,1.21c1.12.62,2.22,1.26,3.32,1.9.31.18.46.11.55-.23s0-.52.2-.73a34.34,34.34,0,0,0,6.7.79,33.52,33.52,0,0,0,8-.85c.09.28.2.55.26.83s.15.34.44.18c1.34-.76,2.7-1.49,4-2.24a23.41,23.41,0,0,0,2.22-1.3h0A33.42,33.42,0,0,0,94,387a.47.47,0,0,0,.14-.44h0l.12.1A21.67,21.67,0,0,0,96,385c1.13-1,2.24-2.05,3.37-3.07.39-.36.39-.46-.09-.71-.2-.1-.43-.14-.46-.43l.09-.17A32.62,32.62,0,0,0,103,368.85c.09-.67.16-1.33.24-2a.84.84,0,0,1,.42-.05c1,.1.81.15.7-.73l0,0c-.24-1.21-.47-2.42-.71-3.62-.2-1-.41-2-.62-3a29.43,29.43,0,0,0-.6-3.11,31.74,31.74,0,0,0-3-7.87,1.73,1.73,0,0,0-.11-.32,37,37,0,0,1-2.19-4.36c-.24-.56-.48-1.11-.74-1.66-.14-.29-.31-.47-.6-.13a.91.91,0,0,1-.6.37,33.36,33.36,0,0,0-11.9-8.54,1,1,0,0,1,.16-.5c.3-.62.3-.62-.37-.74l-.52-.08-2.9-.35Z" transform="translate(-27.02 -320.63)"/><path class="cls-9" d="M96.65,398.87l-.09.08Z" transform="translate(-27.02 -320.63)"/><path class="cls-10" d="M63.3,396.13c-.18.21-.14.48-.2.73s-.24.41-.55.23c-1.1-.64-2.2-1.28-3.32-1.9A17.87,17.87,0,0,0,56.74,394c-.16-.06-.35-.09-.42-.29.21-.45.4-.91.62-1.36.78-1.61,1.57-3.23,2.29-4.87.09-.17.19-.34.27-.51,1.08-2.28,2.13-4.57,3.24-6.83,1-2,2-3.95,3-5.92.34-.58.71-1.15,1-1.74a14.54,14.54,0,0,0,1.13-1.95l.39-.58c.29-.14.31-.59.59-.65a4.92,4.92,0,0,1,2.23-.34,2.5,2.5,0,0,1,2,1.21c.55.91,1.09,1.82,1.65,2.72a6.34,6.34,0,0,0,.7,1.14,1.22,1.22,0,0,0,.09.27c2,3.56,3.7,7.23,5.43,10.91a17.89,17.89,0,0,0,1,2.11c.32.86.75,1.67,1.14,2.5.58,1.25,1.18,2.49,1.77,3.74a23.41,23.41,0,0,1-2.22,1.3c-1.34.75-2.7,1.48-4,2.24-.29.16-.38.14-.44-.18s-.17-.55-.26-.83a3.62,3.62,0,0,0,0-.57c-.19-1.32-.36-2.64-.47-4-.06-.79-.16-1.59-.25-2.38a13.77,13.77,0,0,0-.21-2.48s0-.05,0-.08a39.75,39.75,0,0,0-1.89-9.48A26.46,26.46,0,0,0,71,369.56c-.38-.47-.38-.47-.77,0a25.94,25.94,0,0,0-2.64,4.09,29.32,29.32,0,0,0-2.8,8.49,36.86,36.86,0,0,0-.54,4.44,12.16,12.16,0,0,0-.21,2.69c-.17.14-.09.33-.11.5-.12,1.32-.2,2.65-.37,4A19.35,19.35,0,0,0,63.3,396.13Z" transform="translate(-27.02 -320.63)"/><path class="cls-10" d="M103,359.46c.21,1,.42,2,.62,3,.24,1.2.47,2.41.71,3.62l0,0c.11.88.3.83-.7.73a.84.84,0,0,0-.42.05c-.82-.26-1.69-.31-2.53-.5-1.43-.34-2.86-.65-4.3-1a13,13,0,0,0-2.61-.53c0-.11-.14-.12-.23-.14a42.48,42.48,0,0,0-7.68-1.05,26.55,26.55,0,0,0-5,.3,22.27,22.27,0,0,0-4.75,1.23c-.91.27-1,.14-.4,1a25,25,0,0,0,4.39,5,32.9,32.9,0,0,0,8.2,5.12,5.35,5.35,0,0,0,1.55.62A9.08,9.08,0,0,0,92.48,378c0,.15.19.17.3.22,1.87.77,3.73,1.57,5.53,2.5a.63.63,0,0,0,.46.08c0,.29.26.33.46.43.48.25.48.35.09.71-1.13,1-2.24,2.06-3.37,3.07a21.67,21.67,0,0,1-1.64,1.68l-.12-.1h0c-.12,0-.19-.1-.27-.18-.89-.84-1.76-1.7-2.67-2.51a12.65,12.65,0,0,0-2-1.76c0-.26-.29-.38-.46-.54-3.27-3.06-6.54-6.11-9.63-9.34-.19-.2-.33-.45-.6-.55a4.68,4.68,0,0,0-1-1.13,22.61,22.61,0,0,0-1.85-2.07l-.43-.55c0-.35-.46-.49-.42-.88a5,5,0,0,1,.78-2.73,1.69,1.69,0,0,1,.92-.68c1.64-.47,3.3-.83,5-1.2s3.32-.59,5-.82c3.19-.45,6.38-.86,9.57-1.28Z" transform="translate(-27.02 -320.63)"/><path class="cls-10" d="M57.48,334a1.3,1.3,0,0,0-.22-.72c-.13-.28-.07-.4.26-.43,1.48-.17,2.95-.42,4.42-.54.83-.06,1.59-.38,2.41-.42a.62.62,0,0,1,.35.51c.19,1.15.39,2.31.62,3.46a17.81,17.81,0,0,0,.59,2.7,1.22,1.22,0,0,0,0,.57c.64,3.29,1.29,6.56,1.81,9.87.22,1.39.42,2.79.64,4.19.08.92.15,1.85.27,2.77a4.43,4.43,0,0,0,.16,1.45l0,.85c.06.72-.43,1.14-.82,1.65s-1.21.74-1.83,1.08a.64.64,0,0,1-.6,0l-2.74-1.06a21.53,21.53,0,0,0-2.22-.91c-.18-.25-.49-.29-.74-.41-4-1.94-8-4.13-11.9-6.29-.17-.1-.33-.27-.57-.21,0-.15-.13-.17-.21-.22l-5.42-2.94a.51.51,0,0,0-.36-.08c.48-1.19,1.13-2.3,1.61-3.48.42-1,.91-2,1.38-3,.27-.57.28-.57.71-.14.16.16.3.35.57.32-.07.24.12.34.25.48.56.59,1.14,1.17,1.69,1.77.9,1,1.78,2,2.67,3a10.85,10.85,0,0,0,1.84,2.05c0,.17.13.25.22.35a37.89,37.89,0,0,0,5.7,5.41,26.87,26.87,0,0,0,8.6,4.36c.79.24.79.24.79-.58v-.09a25.85,25.85,0,0,0-.45-5.76,33.38,33.38,0,0,0-4.14-10.36c-.14-.25-.19-.59-.52-.72a5.38,5.38,0,0,0-.24-.55,8.54,8.54,0,0,0-1.24-2c0-.18-.09-.3-.17-.43-1-1.74-2.1-3.45-3-5.27A.48.48,0,0,0,57.48,334Z" transform="translate(-27.02 -320.63)"/><path class="cls-10" d="M37.83,367.15c-1.16,0-1.17,0-.95-1.15s.45-2.48.75-3.7a16.53,16.53,0,0,0,.22-2,.9.9,0,0,1,.08-.21c.12-.29.34-.32.62-.29,2.09.29,4.19.56,6.28.84,3,.39,5.92.76,8.88,1.17,1.91.27,3.8.61,5.7.92l3.8.88a.55.55,0,0,0,.38,0l.76.21c.36.25.78.35,1.07.79a5.23,5.23,0,0,1,.76,2.59,1,1,0,0,1-.24.7c-1.09,1.4-2.26,2.72-3.44,4-3.31,3.49-6.82,6.77-10.34,10.05-.09.09-.2.16-.2.31a.24.24,0,0,0-.21.09c-1.59,1.52-3.24,3-4.76,4.56a1.43,1.43,0,0,1-.21-.12l-4.87-4.58c-.47-.44-.45-.45.07-.83.14-.11.38-.12.41-.36a.9.9,0,0,0,.55-.15c.66-.32,1.32-.65,2-.95,1.28-.58,2.57-1.14,3.85-1.71a14.27,14.27,0,0,0,2.5-1.1c.12.05.22,0,.32-.07a47,47,0,0,0,5.29-2.7,26.94,26.94,0,0,0,8.61-8.12c.32-.48.33-.49-.24-.7a26.51,26.51,0,0,0-8.5-1.61,33.38,33.38,0,0,0-6.91.6,10.13,10.13,0,0,0-2.42.56,11.47,11.47,0,0,0-2.84.64,3.71,3.71,0,0,0-.48.05c-1.2.26-2.4.55-3.61.8C39.61,366.81,38.72,367,37.83,367.15Z" transform="translate(-27.02 -320.63)"/><path class="cls-10" d="M95.11,342.38a.91.91,0,0,0,.6-.37c.29-.34.46-.16.6.13.26.55.5,1.1.74,1.66a37,37,0,0,0,2.19,4.36,1.73,1.73,0,0,1,.11.32c-.75.52-1.6.88-2.39,1.33-1.19.68-2.4,1.35-3.61,2-.18.09-.38.16-.56.26-4.09,2.27-8.17,4.53-12.4,6.54-1.46.65-2.92,1.33-4.43,1.87,0,0-.09.08-.13.12l-.15.07a.35.35,0,0,0-.33,0,1.14,1.14,0,0,1-1,0,4.5,4.5,0,0,1-2.09-1.53,1.24,1.24,0,0,1-.3-.82c0-1.79.22-3.56.41-5.33s.52-3.72.84-5.57c.52-3,1.09-5.93,1.64-8.9.23-1.18.49-2.35.69-3.53a25.85,25.85,0,0,0,.51-3.27l3.53.42,2.9.35.52.08c.67.12.67.12.37.74a1,1,0,0,0-.16.5,1,1,0,0,0-.29.43c-.66,1.31-1.4,2.56-2.13,3.82a8.11,8.11,0,0,0-1,1.75,8.92,8.92,0,0,0-1.4,2.33c-.15,0-.19.15-.26.27A44.42,44.42,0,0,0,75,349a26.57,26.57,0,0,0-1.7,10.1c-.05.95-.05.95.85.63l0,0a24.92,24.92,0,0,0,6.77-3.07A36.5,36.5,0,0,0,88,350.44a2.57,2.57,0,0,0,.71-.89,9.88,9.88,0,0,0,1.77-2c.05,0,.12-.05.15-.09,1.4-1.6,2.79-3.21,4.29-4.71A.43.43,0,0,0,95.11,342.38Z" transform="translate(-27.02 -320.63)"/><path class="cls-11" d="M50.31,347.8c-.89-1-1.77-2-2.67-3-.55-.6-1.13-1.18-1.69-1.77-.13-.14-.32-.24-.25-.48a37.87,37.87,0,0,1,4.13-4A34.53,34.53,0,0,1,57.48,334a.48.48,0,0,1,.23.29c.89,1.82,2,3.53,3,5.27.08.13.21.25.17.43s-.3.19-.45.25a27,27,0,0,0-5.73,3.35A28.86,28.86,0,0,0,50.31,347.8Z" transform="translate(-27.02 -320.63)"/><path class="cls-11" d="M37.83,367.15c.89-.18,1.78-.34,2.67-.53,1.21-.25,2.41-.54,3.61-.8a3.71,3.71,0,0,1,.48-.05,2,2,0,0,1,0,.24,26.07,26.07,0,0,0,4.15,12.26c-1.28.57-2.57,1.13-3.85,1.71-.67.3-1.33.63-2,.95a.9.9,0,0,1-.55.15,33.74,33.74,0,0,1-3.5-8.17A32.27,32.27,0,0,1,37.83,367.15Z" transform="translate(-27.02 -320.63)"/><path class="cls-11" d="M98.77,380.78a.63.63,0,0,1-.46-.08c-1.8-.93-3.66-1.73-5.53-2.5-.11-.05-.25-.07-.3-.22s.09-.27.16-.39a25.38,25.38,0,0,0,3.74-12.2c1.44.31,2.87.62,4.3,1,.84.19,1.71.24,2.53.5-.08.67-.15,1.33-.24,2a32.62,32.62,0,0,1-4.11,11.76Z" transform="translate(-27.02 -320.63)"/><path class="cls-11" d="M79.82,339.84a8.11,8.11,0,0,1,1-1.75c.73-1.26,1.47-2.51,2.13-3.82a1,1,0,0,1,.29-.43,33.36,33.36,0,0,1,11.9,8.54.43.43,0,0,1-.18.33c-1.5,1.5-2.89,3.11-4.29,4.71,0,0-.1.06-.15.09a1.32,1.32,0,0,1-.22-.18,25.83,25.83,0,0,0-9.07-6.84A7.9,7.9,0,0,1,79.82,339.84Z" transform="translate(-27.02 -320.63)"/><path class="cls-11" d="M63.3,396.13a19.35,19.35,0,0,1,.3-2.38c.17-1.32.25-2.65.37-4,0-.17-.06-.36.11-.5.14,0,.29,0,.43.05a25.88,25.88,0,0,0,12.73-.18c.09.79.19,1.59.25,2.38.11,1.33.28,2.65.47,4a3.62,3.62,0,0,1,0,.57,33.52,33.52,0,0,1-8,.85A34.34,34.34,0,0,1,63.3,396.13Z" transform="translate(-27.02 -320.63)"/><path class="cls-11" d="M76.05,331.75a25.85,25.85,0,0,1-.51,3.27c-.2,1.18-.46,2.35-.69,3.53a24.89,24.89,0,0,0-6.73-.25l-2.21.22a17.81,17.81,0,0,1-.59-2.7c-.23-1.15-.43-2.31-.62-3.46a.62.62,0,0,0-.35-.51,36.27,36.27,0,0,1,5.6-.56A35.58,35.58,0,0,1,76.05,331.75Z" transform="translate(-27.02 -320.63)"/><path class="cls-11" d="M44.83,360.64c-2.09-.28-4.19-.55-6.28-.84-.28,0-.5,0-.62.29a32.82,32.82,0,0,1,3.5-11.23.51.51,0,0,1,.36.08l5.42,2.94c.08.05.22.07.21.22s-.06.28-.12.41a23.71,23.71,0,0,0-1.38,3.34A21.45,21.45,0,0,0,44.83,360.64Z" transform="translate(-27.02 -320.63)"/><path class="cls-11" d="M93.35,351.83c1.21-.67,2.42-1.34,3.61-2,.79-.45,1.64-.81,2.39-1.33a31.74,31.74,0,0,1,3,7.87,29.43,29.43,0,0,1,.6,3.11l-6.84.89c0-.15,0-.29,0-.43A26.07,26.07,0,0,0,93.35,351.83Z" transform="translate(-27.02 -320.63)"/><path class="cls-11" d="M47,387c1.52-1.59,3.17-3,4.76-4.56a.24.24,0,0,1,.21-.09c.15,0,.21.14.3.22a26.43,26.43,0,0,0,7,4.92c-.72,1.64-1.51,3.26-2.29,4.87-.22.45-.41.91-.62,1.36A31.65,31.65,0,0,1,47,387Z" transform="translate(-27.02 -320.63)"/><path class="cls-11" d="M89.25,382.12a12.65,12.65,0,0,1,2,1.76c.91.81,1.78,1.67,2.67,2.51.08.08.15.18.27.18A.47.47,0,0,1,94,387a33.42,33.42,0,0,1-9,6.52h0c-.59-1.25-1.19-2.49-1.77-3.74-.39-.83-.82-1.64-1.14-2.5a25.41,25.41,0,0,0,5.52-3.65A16.42,16.42,0,0,1,89.25,382.12Z" transform="translate(-27.02 -320.63)"/><path class="cls-11" d="M94.19,386.57l.12.1Z" transform="translate(-27.02 -320.63)"/><path class="cls-8" d="M77.24,389.15a25.88,25.88,0,0,1-12.73.18c-.14,0-.29,0-.43-.05a12.16,12.16,0,0,1,.21-2.69c.17,0,.18-.2.23-.33.39-1,.78-2.08,1.18-3.12a75.11,75.11,0,0,1,3.16-7.46.63.63,0,0,1,.69-.43,8.18,8.18,0,0,0,2,0,.78.78,0,0,1,1,.54c1.31,2.68,2.35,5.47,3.44,8.24A19.83,19.83,0,0,0,77,386.67,13.77,13.77,0,0,1,77.24,389.15Z" transform="translate(-27.02 -320.63)"/><path class="cls-8" d="M89.25,382.12a16.42,16.42,0,0,0-1.7,1.53A25.41,25.41,0,0,1,82,387.3a17.89,17.89,0,0,1-1-2.11c-1.73-3.68-3.46-7.35-5.43-10.91a1.22,1.22,0,0,1-.09-.27,5.31,5.31,0,0,0,1.93-1.14,3.1,3.1,0,0,0,1.15-1.18c.27.1.41.35.6.55,3.09,3.23,6.36,6.28,9.63,9.34C89,381.74,89.2,381.86,89.25,382.12Z" transform="translate(-27.02 -320.63)"/><path class="cls-8" d="M59.23,387.46a26.43,26.43,0,0,1-7-4.92c-.09-.08-.15-.21-.3-.22s.11-.22.2-.31c3.52-3.28,7-6.56,10.34-10.05l.33.27a10.55,10.55,0,0,0,2.93,2c-1,2-2.05,3.93-3,5.92-1.11,2.26-2.16,4.55-3.24,6.83C59.42,387.12,59.32,387.29,59.23,387.46Z" transform="translate(-27.02 -320.63)"/><path class="cls-12" d="M65.76,374.2a10.55,10.55,0,0,1-2.93-2L62.5,372c1.18-1.32,2.35-2.64,3.44-4a1,1,0,0,0,.24-.7,5.23,5.23,0,0,0-.76-2.59c-.29-.44-.71-.54-1.07-.79.05-.11.16-.09.25-.11a1.44,1.44,0,0,0,.26-2.76,1.4,1.4,0,0,0-1.68.58,1.56,1.56,0,0,0,.22,1.77c.08.09.21.16.19.31a.55.55,0,0,1-.38,0l-3.8-.88a9.41,9.41,0,0,1,.41-1.91,5.27,5.27,0,0,1,.81-1.81,21.53,21.53,0,0,1,2.22.91L65.59,361a.64.64,0,0,0,.6,0c.62-.34,1.35-.45,1.83-1.08s.88-.93.82-1.65c.2,0,.22.22.31.34a1.45,1.45,0,0,0,1.62.54,1.48,1.48,0,0,0,1-1.4A1.44,1.44,0,0,0,69.1,357c-.08.13-.09.32-.28.36a4.43,4.43,0,0,1-.16-1.45c-.12-.92-.19-1.85-.27-2.77a11.72,11.72,0,0,1,2.44-.22,9.88,9.88,0,0,0,1.54.09c-.19,1.77-.38,3.54-.41,5.33a1.24,1.24,0,0,0,.3.82,4.5,4.5,0,0,0,2.09,1.53,1.14,1.14,0,0,0,1,0,.35.35,0,0,1,.33,0c0,.24-.32.31-.31.56h0a.94.94,0,0,0-.12,1.25l.1.18c.21.53.53.71,1.23.69a1.32,1.32,0,0,0,1.27-1,1.49,1.49,0,0,0-.44-1.48,2,2,0,0,0-1.59-.27s.08-.11.13-.12c1.51-.54,3-1.22,4.43-1.87a.53.53,0,0,0,0,.37,13.19,13.19,0,0,1,1.14,3.45c-1.67.37-3.33.73-5,1.2a1.69,1.69,0,0,0-.92.68,5,5,0,0,0-.78,2.73c0,.39.39.53.42.88-.2,0-.36-.11-.54-.16a1.13,1.13,0,0,0-1.36.43h0c-.25,0-.33.23-.4.43a1.77,1.77,0,0,0,.17,1.44l-.08.08a2.5,2.5,0,0,0-2-1.21,4.92,4.92,0,0,0-2.23.34c-.28.06-.3.51-.59.65v-.62a1.39,1.39,0,0,0-1.57-1.37,1.46,1.46,0,0,0-1.2,1.78,1.4,1.4,0,0,0,1.75,1c.21-.06.42-.14.63-.22a14.54,14.54,0,0,1-1.13,1.95C66.47,373.05,66.1,373.62,65.76,374.2Zm4.7-6a4.11,4.11,0,1,0,.06-8.22,4.11,4.11,0,0,0-.06,8.22Z" transform="translate(-27.02 -320.63)"/><path class="cls-12" d="M77,386.67A19.83,19.83,0,0,1,76,384c-1.09-2.77-2.13-5.56-3.44-8.24a.78.78,0,0,0-1-.54,8.18,8.18,0,0,1-2,0,.63.63,0,0,0-.69.43,75.11,75.11,0,0,0-3.16,7.46c-.4,1-.79,2.08-1.18,3.12,0,.13-.06.29-.23.33a36.86,36.86,0,0,1,.54-4.44,29.32,29.32,0,0,1,2.8-8.49,25.94,25.94,0,0,1,2.64-4.09c.39-.48.39-.48.77,0a26.46,26.46,0,0,1,4.14,7.55,39.75,39.75,0,0,1,1.89,9.48S77,386.65,77,386.67Z" transform="translate(-27.02 -320.63)"/><path class="cls-12" d="M78.56,371.69a3.1,3.1,0,0,1-1.15,1.18A5.31,5.31,0,0,1,75.48,374a6.34,6.34,0,0,1-.7-1.14c-.56-.9-1.1-1.81-1.65-2.72l.08-.08c1,.72,1.75.68,2.36-.11a1.82,1.82,0,0,0,.19-1.47,22.61,22.61,0,0,1,1.85,2.07A4.68,4.68,0,0,1,78.56,371.69Z" transform="translate(-27.02 -320.63)"/><path class="cls-8" d="M67.91,370.51c-.21.08-.42.16-.63.22a1.4,1.4,0,0,1-1.75-1,1.46,1.46,0,0,1,1.2-1.78,1.39,1.39,0,0,1,1.57,1.37v.62Zm-1-.06c.26-.07.64.14.81-.28s.39-.57.4-.92a1.24,1.24,0,0,0-2.47.12A1.45,1.45,0,0,0,66.94,370.45Z" transform="translate(-27.02 -320.63)"/><path class="cls-8" d="M96.38,365.39a25.38,25.38,0,0,1-3.74,12.2c-.07.12-.19.23-.16.39a9.08,9.08,0,0,1-2.59-1.09c0-.15-.14-.21-.24-.28-2.15-1.71-4.3-3.43-6.37-5.24a20.92,20.92,0,0,1-2.67-2.57,7.56,7.56,0,0,0,.85-2.82,1.6,1.6,0,0,1,.74-.19c2.51-.4,5-.51,7.58-.67,1.33-.09,2.67-.05,4-.26A13,13,0,0,1,96.38,365.39Z" transform="translate(-27.02 -320.63)"/><path class="cls-8" d="M81.58,362.45A13.19,13.19,0,0,0,80.44,359a.53.53,0,0,1,0-.37c4.23-2,8.31-4.27,12.4-6.54.18-.1.38-.17.56-.26a26.07,26.07,0,0,1,2.74,8.09c0,.14,0,.28,0,.43-3.19.42-6.38.83-9.57,1.28C84.9,361.86,83.24,362.18,81.58,362.45Z" transform="translate(-27.02 -320.63)"/><path class="cls-11" d="M93.77,364.86c-1.32.21-2.66.17-4,.26-2.53.16-5.07.27-7.58.67a1.6,1.6,0,0,0-.74.19,2.33,2.33,0,0,0-1.1.27,1.6,1.6,0,0,0-.56,1.51,3,3,0,0,0,.81,1,20.92,20.92,0,0,0,2.67,2.57c2.07,1.81,4.22,3.53,6.37,5.24.1.07.23.13.24.28a5.35,5.35,0,0,1-1.55-.62,32.9,32.9,0,0,1-8.2-5.12,25,25,0,0,1-4.39-5c.36-.24.35-.62.4-1A22.27,22.27,0,0,1,80.9,364a26.55,26.55,0,0,1,5-.3,42.48,42.48,0,0,1,7.68,1.05C93.63,364.74,93.73,364.75,93.77,364.86Z" transform="translate(-27.02 -320.63)"/><path class="cls-8" d="M75.76,368.49a1.82,1.82,0,0,1-.19,1.47c-.61.79-1.38.83-2.36.11a1.77,1.77,0,0,1-.17-1.44c.07-.2.15-.39.4-.43-.08.31-.16.62-.25.93a.46.46,0,0,0,0,.45c.49.69.71.74,1.54.6.52-.09.56-.43.68-.79a.85.85,0,0,0-.19-1,1,1,0,0,0-1.33-.34,3,3,0,0,1-.51.15,1.13,1.13,0,0,1,1.36-.43c.18.05.34.18.54.16Z" transform="translate(-27.02 -320.63)"/><path class="cls-12" d="M76.15,365.2c-.05.36,0,.74-.4,1C75.13,365.34,75.24,365.47,76.15,365.2Z" transform="translate(-27.02 -320.63)"/><path class="cls-8" d="M50.31,347.8a28.86,28.86,0,0,1,4.38-4.25,27,27,0,0,1,5.73-3.35c.15-.06.35-.08.45-.25a8.54,8.54,0,0,1,1.24,2,5.38,5.38,0,0,1,.24.55c-.07.24.06.44.11.65.58,2.21,1.17,4.41,1.73,6.62a31.45,31.45,0,0,1,.91,4.62,8.75,8.75,0,0,0-2.39,1.79,3.35,3.35,0,0,1-1.09-.49c-2.69-1.42-5.2-3.12-7.76-4.76a8.78,8.78,0,0,0-1.71-1A10.85,10.85,0,0,1,50.31,347.8Z" transform="translate(-27.02 -320.63)"/><path class="cls-8" d="M60.63,359a5.27,5.27,0,0,0-.81,1.81,9.41,9.41,0,0,0-.41,1.91c-1.9-.31-3.79-.65-5.7-.92-3-.41-5.92-.78-8.88-1.17a21.45,21.45,0,0,1,1.09-4.79,23.71,23.71,0,0,1,1.38-3.34c.06-.13.17-.25.12-.41.24-.06.4.11.57.21,3.93,2.16,7.85,4.35,11.9,6.29C60.14,358.72,60.45,358.76,60.63,359Z" transform="translate(-27.02 -320.63)"/><path class="cls-8" d="M72.37,353a9.88,9.88,0,0,1-1.54-.09,11.72,11.72,0,0,0-2.44.22c-.22-1.4-.42-2.8-.64-4.19-.52-3.31-1.17-6.58-1.81-9.87a1.22,1.22,0,0,1,0-.57l2.21-.22a24.89,24.89,0,0,1,6.73.25c-.55,3-1.12,5.93-1.64,8.9C72.89,349.3,72.65,351.16,72.37,353Z" transform="translate(-27.02 -320.63)"/><path class="cls-11" d="M65.1,354.35a31.45,31.45,0,0,0-.91-4.62c-.56-2.21-1.15-4.41-1.73-6.62-.05-.21-.18-.41-.11-.65.33.13.38.47.52.72A33.38,33.38,0,0,1,67,353.54a25.85,25.85,0,0,1,.45,5.76c-.34.14-.74.19-.79.67a26.87,26.87,0,0,1-8.6-4.36,37.89,37.89,0,0,1-5.7-5.41c-.09-.1-.23-.18-.22-.35a8.78,8.78,0,0,1,1.71,1c2.56,1.64,5.07,3.34,7.76,4.76a3.35,3.35,0,0,0,1.09.49,1.45,1.45,0,0,0,.64.3c.32.08.62.26,1,0,.55-.36,1-.77.82-1.51A4.22,4.22,0,0,1,65.1,354.35Z" transform="translate(-27.02 -320.63)"/><path class="cls-8" d="M68.82,357.37c.19,0,.2-.23.28-.36a1.44,1.44,0,0,1,2.66.69,1.48,1.48,0,0,1-1,1.4,1.45,1.45,0,0,1-1.62-.54c-.09-.12-.11-.31-.31-.34Zm2.69.66a1.37,1.37,0,0,0-1.33-1.47c-.33,0-1,.71-1,1A1.42,1.42,0,0,0,70.5,359C70.75,359,71.51,358.26,71.51,358Z" transform="translate(-27.02 -320.63)"/><path class="cls-12" d="M66.67,360c0-.48.45-.53.79-.67v.09C67.46,360.21,67.46,360.21,66.67,360Z" transform="translate(-27.02 -320.63)"/><path class="cls-8" d="M48.78,378.27A26.07,26.07,0,0,1,44.63,366a2,2,0,0,0,0-.24,11.47,11.47,0,0,1,2.84-.64.69.69,0,0,0,.53.15c2.48.06,4.95.24,7.42.42a34.17,34.17,0,0,1,3.78.44.46.46,0,0,1,.44.42,8.26,8.26,0,0,0,.71,2.1.64.64,0,0,1-.19.86c-2.63,2.61-5.57,4.86-8.44,7.2-.16.13-.36.21-.4.45A14.27,14.27,0,0,1,48.78,378.27Z" transform="translate(-27.02 -320.63)"/><path class="cls-12" d="M51.28,377.17c0-.24.24-.32.4-.45,2.87-2.34,5.81-4.59,8.44-7.2a.64.64,0,0,0,.19-.86,8.26,8.26,0,0,1-.71-2.1.46.46,0,0,0-.44-.42,34.17,34.17,0,0,0-3.78-.44c-2.47-.18-4.94-.36-7.42-.42a.69.69,0,0,1-.53-.15,10.13,10.13,0,0,1,2.42-.56,33.38,33.38,0,0,1,6.91-.6,26.51,26.51,0,0,1,8.5,1.61c.57.21.56.22.24.7a26.94,26.94,0,0,1-8.61,8.12,47,47,0,0,1-5.29,2.7C51.5,377.14,51.4,377.22,51.28,377.17Z" transform="translate(-27.02 -320.63)"/><path class="cls-8" d="M63.59,363.63c0-.15-.11-.22-.19-.31a1.56,1.56,0,0,1-.22-1.77,1.4,1.4,0,0,1,1.68-.58,1.44,1.44,0,0,1-.26,2.76c-.09,0-.2,0-.25.11Zm1.08-.14a1.68,1.68,0,0,0,1-1.05,1.38,1.38,0,0,0-1.5-1.3,1.94,1.94,0,0,0-1,1A1.37,1.37,0,0,0,64.67,363.49Z" transform="translate(-27.02 -320.63)"/><path class="cls-8" d="M79.82,339.84a7.9,7.9,0,0,0,1.38.65,25.83,25.83,0,0,1,9.07,6.84,1.32,1.32,0,0,0,.22.18,9.88,9.88,0,0,1-1.77,2c-.2,0-.32.15-.46.24-2.48,1.62-4.94,3.26-7.49,4.76a16,16,0,0,1-2.7,1.39,7.56,7.56,0,0,0-2.39-1.68,3.56,3.56,0,0,1,.13-1.34c.59-3.24,1.52-6.4,2.35-9.59a3.56,3.56,0,0,0,.26-1.16A8.92,8.92,0,0,1,79.82,339.84Z" transform="translate(-27.02 -320.63)"/><path class="cls-11" d="M78.42,342.17a3.56,3.56,0,0,1-.26,1.16c-.83,3.19-1.76,6.35-2.35,9.59a3.56,3.56,0,0,0-.13,1.34,2,2,0,0,0-.11.95c0,.49.82,1.27,1.25,1.18a2.59,2.59,0,0,0,1.25-.45,16,16,0,0,0,2.7-1.39c2.55-1.5,5-3.14,7.49-4.76.14-.09.26-.24.46-.24a2.57,2.57,0,0,1-.71.89,36.5,36.5,0,0,1-7.09,6.21,24.92,24.92,0,0,1-6.77,3.07,1.27,1.27,0,0,0-.89-.6A26.57,26.57,0,0,1,75,349a44.42,44.42,0,0,1,3.2-6.58C78.23,342.32,78.27,342.2,78.42,342.17Z" transform="translate(-27.02 -320.63)"/><path class="cls-8" d="M75.37,361.25c0-.25.3-.32.31-.56l.15-.07a2,2,0,0,1,1.59.27,1.49,1.49,0,0,1,.44,1.48,1.32,1.32,0,0,1-1.27,1c-.7,0-1-.16-1.23-.69l.76.42a.5.5,0,0,0,.4.11,1.22,1.22,0,0,0,1.09-1.33.8.8,0,0,0-.39-.75,1.06,1.06,0,0,0-1.42-.07A2.83,2.83,0,0,1,75.37,361.25Z" transform="translate(-27.02 -320.63)"/><path class="cls-12" d="M73.26,359.12a1.27,1.27,0,0,1,.89.6l0,0C73.21,360.07,73.21,360.07,73.26,359.12Z" transform="translate(-27.02 -320.63)"/><path class="cls-8" d="M70.46,368.21a4.11,4.11,0,1,1,4.14-4.08A4.09,4.09,0,0,1,70.46,368.21Z" transform="translate(-27.02 -320.63)"/><path class="cls-11" d="M75.37,361.25a2.83,2.83,0,0,0,.43-.2,1.06,1.06,0,0,1,1.42.07.8.8,0,0,1,.39.75,1.22,1.22,0,0,1-1.09,1.33.5.5,0,0,1-.4-.11l-.76-.42-.1-.18.12-1.25Z" transform="translate(-27.02 -320.63)"/><path class="cls-8" d="M75.38,361.24l-.12,1.25A.94.94,0,0,1,75.38,361.24Z" transform="translate(-27.02 -320.63)"/><path class="cls-11" d="M66.94,370.45a1.45,1.45,0,0,1-1.26-1.08,1.24,1.24,0,0,1,2.47-.12c0,.35-.28.61-.4.92S67.2,370.38,66.94,370.45Z" transform="translate(-27.02 -320.63)"/><path class="cls-12" d="M80.61,368.8a3,3,0,0,1-.81-1,1.6,1.6,0,0,1,.56-1.51,2.33,2.33,0,0,1,1.1-.27A7.56,7.56,0,0,1,80.61,368.8Z" transform="translate(-27.02 -320.63)"/><path class="cls-11" d="M73.43,368.21a3,3,0,0,0,.51-.15,1,1,0,0,1,1.33.34.85.85,0,0,1,.19,1c-.12.36-.16.7-.68.79-.83.14-1,.09-1.54-.6a.46.46,0,0,1,0-.45c.09-.31.17-.62.25-.93Z" transform="translate(-27.02 -320.63)"/><path class="cls-12" d="M65.1,354.35a4.22,4.22,0,0,0,0,.62c.16.74-.27,1.15-.82,1.51-.34.22-.64,0-1,0a1.45,1.45,0,0,1-.64-.3A8.75,8.75,0,0,1,65.1,354.35Z" transform="translate(-27.02 -320.63)"/><path class="cls-11" d="M71.51,358c0,.23-.76,1-1,1a1.42,1.42,0,0,1-1.34-1.46c0-.3.69-1,1-1A1.37,1.37,0,0,1,71.51,358Z" transform="translate(-27.02 -320.63)"/><path class="cls-11" d="M64.67,363.49a1.37,1.37,0,0,1-1.47-1.31,1.94,1.94,0,0,1,1-1,1.38,1.38,0,0,1,1.5,1.3A1.68,1.68,0,0,1,64.67,363.49Z" transform="translate(-27.02 -320.63)"/><path class="cls-12" d="M78.07,355.94a2.59,2.59,0,0,1-1.25.45c-.43.09-1.22-.69-1.25-1.18a2,2,0,0,1,.11-.95A7.56,7.56,0,0,1,78.07,355.94Z" transform="translate(-27.02 -320.63)"/></svg>