<svg id="Слой_1" data-name="Слой 1" xmlns="http://www.w3.org/2000/svg" viewBox="0 0 326.56 86.94"><defs><style>.cls-1{fill:#565da4;}.cls-2{fill:#5e70b2;}.cls-3{fill:#201600;}.cls-4{fill:#07080a;}.cls-5{fill:#080a0b;}.cls-6{fill:#171a1c;opacity:0.58;}.cls-7{fill:#f0bc47;}.cls-8{fill:#19191a;}.cls-9{fill:#eee;}.cls-10{fill:#cbcbcb;}.cls-11{fill:gray;}.cls-12{fill:#666;}.cls-13{fill:#fff;}</style></defs><title>logotype-medium</title><path class="cls-1" d="M176.71,357.55c-1.44-1.34-9.62-4.07-9.62-4.07s-.81-.65-.76-.74,3.36.07,3.63-.08,4-1,2.11-3.91-4-3.78-5.62-3.78-4.4.67-5.1,1.7a5.38,5.38,0,0,0,.1,4.67c.72.9-3.41-3-3.41-3a12.29,12.29,0,0,1-2.45-.06c-.35-.17-4.75-10.5-9.07-12.35a39.88,39.88,0,0,0-6.39-2.11c-1.33-.31-2.35-.47-2.89-.54-1.23-.14-9.16,0-9.16,0s-2.09-1.66-13.24-1.76c-11.14.1-13.23,1.76-13.23,1.76s-7.93-.14-9.16,0A36.73,36.73,0,0,0,83.17,336c-4.32,1.85-8.72,12.18-9.07,12.35a12.29,12.29,0,0,1-2.45.06s-4.13,3.87-3.41,3a5.38,5.38,0,0,0,.1-4.67c-.7-1-3.48-1.7-5.1-1.7s-3.7.86-5.62,3.78,1.83,3.76,2.11,3.91,3.58,0,3.63.08-.76.74-.76.74-8.19,2.73-9.63,4.07-.37,38.53-.28,41.85S55.07,403,55.07,403H73.13c1.73,0,1.05-.95,1.05-.95h81.33s-.68.95,1.05.95h18.06s2.3-.23,2.38-3.55c.05-2,.45-16,.46-27.26C177.47,364.49,177.3,358.1,176.71,357.55Z" transform="translate(-27.02 -323.78)"/><path class="cls-2" d="M166.57,354s-.81-.65-.76-.74,3.36.07,3.63-.08,4-1,2.11-3.91-4-3.78-5.62-3.78-4.4.67-5.1,1.7a5.36,5.36,0,0,0,.1,4.66c.72.91-3.41-3-3.41-3a12.29,12.29,0,0,1-2.45-.06c-.35-.17-4.75-10.5-9.07-12.35a39.88,39.88,0,0,0-6.39-2.11h0s3.12,17.1-1.35,17.93-4.08.7-6.77,2.43-25,9.84-26.36,10.85-10.32,5.34-10.91,11.38,82.71-4.3,82.72-4.3c0-7.65-.16-14.05-.75-14.59C174.75,356.7,166.57,354,166.57,354Z" transform="translate(-27.02 -323.78)"/><path class="cls-3" d="M156.56,404a2.08,2.08,0,0,1-2-.91l0,0H75.17v0a2.08,2.08,0,0,1-2,.91H55.07c-1.2-.12-3.3-1.2-3.38-4.53l0-.89c-1-40.13,0-41.16.63-41.71,1-.93,4.41-2.3,7-3.25l-.06,0h0c-.67-.23-2.45-.84-3-2.38a3.31,3.31,0,0,1,.57-2.95c2.29-3.49,4.77-4.23,6.45-4.23s4.9.63,5.93,2.14a5.09,5.09,0,0,1,.65,2.6L71,347.64l.31-.29.42,0c.67,0,1.39,0,1.8,0,.13-.23.3-.57.48-.91,1.65-3.2,5.09-9.85,8.8-11.44a37.25,37.25,0,0,1,9.55-2.72c1.17-.14,7.43,0,9,0,1-.54,4.23-1.67,13.5-1.76,9.27.09,12.5,1.22,13.51,1.76,1.58,0,7.84-.13,9,0a26.22,26.22,0,0,1,3,.56,40.59,40.59,0,0,1,6.55,2.16c3.71,1.59,7.15,8.24,8.8,11.44l.48.92c.43,0,1.19,0,1.8,0l.42,0,.31.29,1.15,1.07a5.09,5.09,0,0,1,.65-2.6c1-1.51,4.37-2.14,5.93-2.14s4.16.74,6.45,4.23a3.27,3.27,0,0,1,.56,2.95c-.52,1.54-2.3,2.15-3,2.38l-.11,0c2.61.95,6,2.32,7,3.25.48.45,1.07,1,1.06,15.32,0,6.77-.15,15.65-.43,26.39l0,.89c-.08,3.33-2.18,4.41-3.28,4.52ZM53.76,358.2c-.29.9-1,6.51-.1,40.28l0,.89c.06,2.41,1.47,2.58,1.48,2.58H72.91l-.68-.95h85.23l-.68.95h17.76c.26-.06,1.41-.42,1.46-2.58l0-.89c.28-10.73.42-19.58.43-26.34,0-11-.37-13.42-.53-13.94-1.12-.87-6-2.7-9.16-3.77l-.17-.06-.13-.11c-.7-.55-1.49-1.18-1-2,.32-.55.58-.55,2.31-.52.6,0,1.58,0,1.89,0l.18-.06c.38-.13,1.52-.52,1.73-1.14a1.54,1.54,0,0,0-.34-1.2c-1.8-2.75-3.59-3.33-4.78-3.33-1.69,0-3.91.74-4.27,1.26a4.64,4.64,0,0,0,0,3.48,1,1,0,0,1,0,1.5c-.75.69-.84.64-4.55-2.82-2,.08-2.34-.1-2.5-.18-.38-.18-.48-.37-1.22-1.81-1.31-2.52-4.77-9.22-7.81-10.52a37.58,37.58,0,0,0-6.23-2.05,23.7,23.7,0,0,0-2.78-.52c-.85-.11-5.86-.06-9,0h-.36l-.28-.23h0s-2.35-1.45-12.62-1.54c-10.3.1-12.62,1.56-12.65,1.57l-.25.17-.35,0c-3.16-.06-8.17-.11-9,0a35.36,35.36,0,0,0-9,2.57c-3,1.3-6.5,8-7.81,10.52-.74,1.44-.84,1.63-1.22,1.81-.16.08-.53.26-2.5.18-3.71,3.46-3.8,3.51-4.55,2.82a1,1,0,0,1,0-1.5,4.59,4.59,0,0,0,.06-3.48c-.36-.52-2.58-1.26-4.27-1.26-1.19,0-3,.58-4.78,3.33a1.54,1.54,0,0,0-.34,1.2c.21.62,1.35,1,1.72,1.14l.19.06c.31,0,1.29,0,1.89,0,1.73,0,2,0,2.31.52.48.84-.31,1.47-1,2l-.14.11-.16.06C59.71,355.5,54.88,357.33,53.76,358.2Zm122.27.08h0Zm-.13-.17ZM60.1,351.73l.1,0Zm109.49,0-.1,0Z" transform="translate(-27.02 -323.78)"/><ellipse class="cls-4" cx="88.42" cy="37.3" rx="8.36" ry="1.4"/><path class="cls-5" d="M57.82,368.44a1.62,1.62,0,0,0,1.23,1.39,52.12,52.12,0,0,0,10.41,1c8.14.12,14,.38,14.71,0s2.72-2.59-2.23-5.14S56,353.35,57.82,368.44Z" transform="translate(-27.02 -323.78)"/><path class="cls-5" d="M171.13,368.44a1.6,1.6,0,0,1-1.23,1.39,52,52,0,0,1-10.4,1c-8.14.12-14.05.38-14.72,0s-2.71-2.59,2.24-5.14S173,353.35,171.13,368.44Z" transform="translate(-27.02 -323.78)"/><path class="cls-6" d="M114.84,336.46S89.18,336.08,84,339c-1.88,1.07-7.19,9.71-9.25,13.15a.93.93,0,0,0,.8,1.4H89.38s6.57-1.41,7.27-1.79,18.19,0,18.19,0,6.38-.14,11.59-.16L136,337.1C126.75,336.29,114.84,336.46,114.84,336.46Z" transform="translate(-27.02 -323.78)"/><path class="cls-6" d="M133,351.78c.7.38,7.27,1.79,7.27,1.79h13.82a.93.93,0,0,0,.8-1.4c-2.06-3.44-7.37-12.08-9.26-13.15-1.64-.94-5.38-1.54-9.7-1.92l-9.54,14.52A51.82,51.82,0,0,1,133,351.78Z" transform="translate(-27.02 -323.78)"/><path class="cls-6" d="M133,351.78c.7.38,7.27,1.79,7.27,1.79h13.82a.93.93,0,0,0,.8-1.4c-2.06-3.44-7.37-12.08-9.26-13.15-1.64-.94-5.38-1.54-9.7-1.92l-9.54,14.52A51.82,51.82,0,0,1,133,351.78Z" transform="translate(-27.02 -323.78)"/><circle class="cls-5" cx="38.35" cy="59.47" r="4.43"/><circle class="cls-5" cx="138.44" cy="59.47" r="4.43"/><path class="cls-5" d="M109.05,386.84l-29.89-.71a.32.32,0,0,0-.25.52l1.53,3.52a.31.31,0,0,0,.25.13l28.36.8a.32.32,0,0,0,.33-.31v-3.62A.33.33,0,0,0,109.05,386.84Z" transform="translate(-27.02 -323.78)"/><path class="cls-5" d="M108.59,383.27,79.06,382.2a.33.33,0,0,1-.24-.53L81,379a.33.33,0,0,1,.25-.11H108.6a.32.32,0,0,1,.33.32V383A.32.32,0,0,1,108.59,383.27Z" transform="translate(-27.02 -323.78)"/><path class="cls-5" d="M121.1,383.27l29.53-1.07a.32.32,0,0,0,.23-.53l-2.19-2.7a.34.34,0,0,0-.25-.11H121.08a.32.32,0,0,0-.32.32V383A.32.32,0,0,0,121.1,383.27Z" transform="translate(-27.02 -323.78)"/><path class="cls-5" d="M120.63,386.84l29.9-.71a.32.32,0,0,1,.25.52l-1.53,3.52a.31.31,0,0,1-.25.13l-28.36.8a.32.32,0,0,1-.33-.31v-3.62A.32.32,0,0,1,120.63,386.84Z" transform="translate(-27.02 -323.78)"/><path class="cls-5" d="M151.52,395l-36.68,1.53L78.17,395a.34.34,0,0,0-.31.49l2,3.72s31.7.91,35,.65c3.26.26,35-.65,35-.65l2-3.72A.34.34,0,0,0,151.52,395Z" transform="translate(-27.02 -323.78)"/><path class="cls-7" d="M124.08,334.34h0Z" transform="translate(-27.02 -323.78)"/><path class="cls-3" d="M121.89,334.48h-13.7c-.58,0-.78-.49-.27-.66l1.56-.56a.86.86,0,0,1,.28,0h10.56a.8.8,0,0,1,.27,0l1.57.55C122.67,334,122.47,334.48,121.89,334.48Z" transform="translate(-27.02 -323.78)"/><path class="cls-8" d="M27,370.19v-5.51c.15-.08.09-.23.1-.35a44.09,44.09,0,0,1,1.05-7.05,52.07,52.07,0,0,1,2-6.43L32,347.07c.74-1.34,1.53-2.65,2.34-3.95a2.66,2.66,0,0,0,.47-.68l.89-1.24a52,52,0,0,1,4.51-5.1c1.36-1.32,2.81-2.51,4.28-3.69l1.24-.9a2.48,2.48,0,0,0,.69-.47q1.93-1.21,4-2.33L54.1,327l4.06-1.43A13.19,13.19,0,0,0,59.9,325l.28,0a44.76,44.76,0,0,1,5.63-1,9.23,9.23,0,0,0,2-.25h5.41c.06.15.19.09.29.1A44.34,44.34,0,0,1,82,325.31c1.68.46,3.32,1.07,5,1.66l3.75,1.76c1.35.75,2.69,1.54,4,2.38l.6.4,1.33,1c1.34,1.07,2.67,2.16,3.92,3.35a52.87,52.87,0,0,1,4.78,5.36l1,1.35a1.91,1.91,0,0,0,.39.58c.84,1.34,1.65,2.69,2.41,4.07l1.69,3.66,1.41,4,.49,1.82a50.31,50.31,0,0,1,1.26,8.8v3.87a52.75,52.75,0,0,1-.91,7,49.86,49.86,0,0,1-2.27,7.44L109,387.49c-.75,1.35-1.54,2.67-2.37,4l-.33.48-1,1.45c-1.08,1.34-2.17,2.67-3.35,3.91A51.09,51.09,0,0,1,96.65,402l-.09.08-.1.06-1.26.91-.49.32q-2,1.26-4,2.38L87,407.53,82.91,409a12.81,12.81,0,0,0-1.74.49.61.61,0,0,0-.19,0,47.19,47.19,0,0,1-8.61,1.26H68.6c-1.6-.15-3.2-.22-4.79-.5-1.31-.24-2.61-.51-3.91-.76l-1.82-.5-4-1.41-3.86-1.79-3.88-2.31a2.06,2.06,0,0,0-.57-.39l-1.36-1c-1.09-.9-2.19-1.77-3.24-2.72-1.42-1.29-2.72-2.71-4-4.14a1.53,1.53,0,0,0-.4-.48l-1.05-1.35-1-1.34a1.57,1.57,0,0,0-.34-.51.05.05,0,0,0,0-.06l0,0c-.83-1.33-1.65-2.67-2.4-4.05l-1.73-3.69-1.37-3.87-.07-.21,0,0,0-.05-.45-1.64a2,2,0,0,0,0-.24,45.38,45.38,0,0,1-1-5.78A5.31,5.31,0,0,0,27,370.19Zm79.18-2.9A35.71,35.71,0,1,0,70.4,403,35.71,35.71,0,0,0,106.2,367.29Z" transform="translate(-27.02 -323.78)"/><path class="cls-9" d="M106.2,367.29a35.71,35.71,0,1,1-35.65-35.74A35.71,35.71,0,0,1,106.2,367.29ZM76.05,334.9a34.6,34.6,0,0,0-6.1-.46,35.07,35.07,0,0,0-5.6.56c-.82,0-1.58.35-2.41.42-1.47.11-2.94.36-4.42.53-.33,0-.39.16-.26.43a1.36,1.36,0,0,1,.22.73,34.53,34.53,0,0,0-7.65,4.65,37.87,37.87,0,0,0-4.13,4c-.27,0-.41-.16-.57-.32-.43-.43-.44-.43-.71.13-.47,1-1,2-1.38,3-.48,1.19-1.13,2.3-1.61,3.49a32.82,32.82,0,0,0-3.5,11.23.9.9,0,0,0-.08.21,16.15,16.15,0,0,1-.22,2c-.3,1.23-.5,2.47-.75,3.71s-.21,1.13.95,1.14a32.21,32.21,0,0,0,1.06,5.77,33.67,33.67,0,0,0,3.5,8.16c0,.25-.27.25-.41.36-.52.39-.54.4-.07.84L46.78,390a1.43,1.43,0,0,0,.21.12,32,32,0,0,0,9.33,6.72c.07.2.26.23.42.29a16.82,16.82,0,0,1,2.49,1.21c1.12.62,2.22,1.26,3.32,1.9.31.18.46.11.55-.24s0-.51.2-.72A33.12,33.12,0,0,0,78,399.22c.09.28.2.54.26.82s.15.35.44.19c1.34-.76,2.7-1.49,4-2.24a23.41,23.41,0,0,0,2.22-1.3h0a33.42,33.42,0,0,0,9-6.52.48.48,0,0,0,.14-.44h0l.12.1A21.67,21.67,0,0,0,96,388.14c1.13-1,2.24-2.05,3.37-3.07.39-.36.39-.46-.09-.71-.2-.1-.43-.14-.46-.43l.09-.17A32.69,32.69,0,0,0,103,372c.09-.67.16-1.33.24-2a.84.84,0,0,1,.42-.05c1,.1.81.15.7-.73a.08.08,0,0,0,0,0c-.24-1.21-.47-2.42-.71-3.62-.2-1-.41-2-.62-2.95a30.12,30.12,0,0,0-.6-3.12,31.82,31.82,0,0,0-3-7.86,1.73,1.73,0,0,0-.11-.32,36.38,36.38,0,0,1-2.19-4.37c-.24-.55-.48-1.11-.74-1.65-.14-.29-.31-.47-.6-.13a1,1,0,0,1-.6.37A33.36,33.36,0,0,0,83.21,337a1,1,0,0,1,.16-.5c.3-.62.3-.62-.37-.74l-.52-.08-2.9-.35Z" transform="translate(-27.02 -323.78)"/><path class="cls-9" d="M96.65,402l-.09.08Z" transform="translate(-27.02 -323.78)"/><path class="cls-10" d="M63.3,399.28c-.18.21-.14.48-.2.72s-.24.42-.55.24c-1.1-.64-2.2-1.28-3.32-1.9a16.82,16.82,0,0,0-2.49-1.21c-.16-.06-.35-.09-.42-.29.21-.46.4-.91.62-1.36.78-1.61,1.57-3.23,2.29-4.88.09-.16.19-.33.27-.5,1.08-2.28,2.13-4.57,3.24-6.83,1-2,2-3.95,3-5.92.34-.58.71-1.15,1-1.74a14.54,14.54,0,0,0,1.13-1.95l.39-.58c.29-.14.31-.59.59-.65a5.06,5.06,0,0,1,2.23-.35,2.49,2.49,0,0,1,2,1.22c.55.91,1.09,1.82,1.65,2.72a6.71,6.71,0,0,0,.7,1.14,1.14,1.14,0,0,0,.09.26c2,3.56,3.7,7.24,5.43,10.92a17.89,17.89,0,0,0,1,2.11c.32.86.75,1.67,1.14,2.49.58,1.25,1.18,2.5,1.77,3.75a23.41,23.41,0,0,1-2.22,1.3c-1.34.75-2.7,1.48-4,2.24-.29.16-.38.14-.44-.19s-.17-.54-.26-.82a3.58,3.58,0,0,0,0-.57c-.19-1.32-.36-2.64-.47-4-.06-.79-.16-1.59-.25-2.38a13.69,13.69,0,0,0-.21-2.48s0-.06,0-.08a39.93,39.93,0,0,0-1.89-9.49A26.54,26.54,0,0,0,71,372.71c-.38-.48-.38-.48-.77,0a25.49,25.49,0,0,0-2.64,4.09,29.22,29.22,0,0,0-2.8,8.49,36.86,36.86,0,0,0-.54,4.44,12.16,12.16,0,0,0-.21,2.69c-.17.14-.09.33-.11.5-.12,1.32-.2,2.65-.37,4A19.11,19.11,0,0,0,63.3,399.28Z" transform="translate(-27.02 -323.78)"/><path class="cls-10" d="M103,362.61c.21,1,.42,2,.62,2.95.24,1.2.47,2.41.71,3.62a.08.08,0,0,1,0,0c.11.88.3.83-.7.73a.84.84,0,0,0-.42.05c-.82-.26-1.69-.31-2.53-.51-1.43-.33-2.86-.64-4.3-1a13.71,13.71,0,0,0-2.61-.52c0-.12-.14-.12-.23-.14a42.48,42.48,0,0,0-7.68-1.05,25,25,0,0,0-5,.3,21.7,21.7,0,0,0-4.75,1.23c-.91.27-1,.14-.4,1a25,25,0,0,0,4.39,5,33.2,33.2,0,0,0,8.2,5.12,5.35,5.35,0,0,0,1.55.62,9.38,9.38,0,0,0,2.59,1.09c0,.15.19.17.3.22,1.87.77,3.73,1.57,5.53,2.5a.63.63,0,0,0,.46.08c0,.29.26.33.46.43.48.25.48.35.09.71-1.13,1-2.24,2.06-3.37,3.07a21.67,21.67,0,0,1-1.64,1.68l-.12-.1h0c-.12,0-.19-.1-.27-.18-.89-.84-1.76-1.7-2.67-2.52a13.12,13.12,0,0,0-2-1.75c0-.27-.29-.38-.46-.54-3.27-3.06-6.54-6.11-9.63-9.35-.19-.19-.33-.44-.6-.54a4.68,4.68,0,0,0-1-1.13,21.36,21.36,0,0,0-1.85-2.07l-.43-.56c0-.34-.46-.48-.42-.88a4.89,4.89,0,0,1,.78-2.72,1.64,1.64,0,0,1,.92-.68c1.64-.47,3.3-.83,5-1.2s3.32-.59,5-.82c3.19-.45,6.38-.86,9.57-1.28Z" transform="translate(-27.02 -323.78)"/><path class="cls-10" d="M57.48,337.11a1.36,1.36,0,0,0-.22-.73c-.13-.27-.07-.39.26-.43,1.48-.17,2.95-.42,4.42-.53.83-.07,1.59-.38,2.41-.42a.62.62,0,0,1,.35.51c.19,1.15.39,2.31.62,3.45a17.94,17.94,0,0,0,.59,2.71,1.22,1.22,0,0,0,0,.57c.64,3.28,1.29,6.56,1.81,9.87.22,1.39.42,2.79.64,4.19.08.92.15,1.84.27,2.77a4.46,4.46,0,0,0,.16,1.45l0,.85c.06.72-.43,1.14-.82,1.65s-1.21.74-1.83,1.08a.64.64,0,0,1-.6,0l-2.74-1.06a19.51,19.51,0,0,0-2.22-.91c-.18-.25-.49-.29-.74-.42-4-1.93-8-4.12-11.9-6.28-.17-.1-.33-.27-.57-.21,0-.15-.13-.17-.21-.22l-5.42-2.94a.51.51,0,0,0-.36-.08c.48-1.19,1.13-2.3,1.61-3.49.42-1,.91-2,1.38-3,.27-.56.28-.56.71-.13.16.16.3.34.57.32-.07.23.12.34.25.48.56.59,1.14,1.17,1.69,1.77.9,1,1.78,2,2.67,3a10.49,10.49,0,0,0,1.84,2c0,.18.13.25.22.36a38.39,38.39,0,0,0,5.7,5.41,26.64,26.64,0,0,0,8.6,4.35c.79.25.79.25.79-.57v-.09a26,26,0,0,0-.45-5.77,33.43,33.43,0,0,0-4.14-10.35c-.14-.25-.19-.59-.52-.72a5.55,5.55,0,0,0-.24-.56,8.48,8.48,0,0,0-1.24-1.95c0-.18-.09-.3-.17-.43-1-1.74-2.1-3.45-3-5.27A.45.45,0,0,0,57.48,337.11Z" transform="translate(-27.02 -323.78)"/><path class="cls-10" d="M37.83,370.29c-1.16,0-1.17,0-.95-1.14s.45-2.48.75-3.71a16.15,16.15,0,0,0,.22-2,.9.9,0,0,1,.08-.21c.12-.29.34-.33.62-.29,2.09.29,4.19.56,6.28.84,3,.39,5.92.76,8.88,1.17,1.91.27,3.8.61,5.7.91l3.8.89a.62.62,0,0,0,.38,0l.76.21c.36.24.78.34,1.07.79a5.2,5.2,0,0,1,.76,2.59,1,1,0,0,1-.24.7c-1.09,1.4-2.26,2.72-3.44,4-3.31,3.49-6.82,6.77-10.34,10.05-.09.08-.2.16-.2.31a.22.22,0,0,0-.21.09c-1.59,1.51-3.24,3-4.76,4.56a1.43,1.43,0,0,1-.21-.12l-4.87-4.58c-.47-.44-.45-.45.07-.84.14-.11.38-.11.41-.36a.83.83,0,0,0,.55-.14c.66-.32,1.32-.65,2-.95,1.28-.58,2.57-1.14,3.85-1.71a14.27,14.27,0,0,0,2.5-1.1c.12,0,.22,0,.32-.08a46.94,46.94,0,0,0,5.29-2.69,26.94,26.94,0,0,0,8.61-8.12c.32-.48.33-.49-.24-.7a26.8,26.8,0,0,0-8.5-1.62,34.09,34.09,0,0,0-6.91.61,10.61,10.61,0,0,0-2.42.55,12,12,0,0,0-2.84.65,3.71,3.71,0,0,0-.48.05l-3.61.8C39.61,370,38.72,370.12,37.83,370.29Z" transform="translate(-27.02 -323.78)"/><path class="cls-10" d="M95.11,345.53a1,1,0,0,0,.6-.37c.29-.34.46-.16.6.13.26.54.5,1.1.74,1.65a36.38,36.38,0,0,0,2.19,4.37,1.73,1.73,0,0,1,.11.32c-.75.52-1.6.87-2.39,1.33-1.19.68-2.4,1.35-3.61,2-.18.09-.38.16-.56.26-4.09,2.26-8.17,4.53-12.4,6.53-1.46.66-2.92,1.33-4.43,1.87,0,0-.09.09-.13.13l-.15.07a.35.35,0,0,0-.33,0,1.07,1.07,0,0,1-1,0,4.36,4.36,0,0,1-2.09-1.53,1.2,1.2,0,0,1-.3-.81c0-1.79.22-3.56.41-5.33s.52-3.72.84-5.57c.52-3,1.09-5.94,1.64-8.9.23-1.18.49-2.35.69-3.54a25.41,25.41,0,0,0,.51-3.26l3.53.42,2.9.35.52.08c.67.12.67.12.37.74a1,1,0,0,0-.16.5,1,1,0,0,0-.29.43c-.66,1.31-1.4,2.56-2.13,3.82a8.11,8.11,0,0,0-1,1.75,8.76,8.76,0,0,0-1.4,2.33c-.15,0-.19.15-.26.26a45,45,0,0,0-3.2,6.59,26.57,26.57,0,0,0-1.7,10.1c-.05,1-.05,1,.85.63l0,0a25.23,25.23,0,0,0,6.77-3.07A36.5,36.5,0,0,0,88,353.59a2.57,2.57,0,0,0,.71-.89,10.42,10.42,0,0,0,1.77-2c.05,0,.12-.05.15-.09,1.4-1.6,2.79-3.21,4.29-4.71A.44.44,0,0,0,95.11,345.53Z" transform="translate(-27.02 -323.78)"/><path class="cls-11" d="M50.31,351c-.89-1-1.77-2-2.67-3-.55-.6-1.13-1.18-1.69-1.77-.13-.14-.32-.25-.25-.48a37.87,37.87,0,0,1,4.13-4,34.53,34.53,0,0,1,7.65-4.65.45.45,0,0,1,.23.29c.89,1.82,2,3.53,3,5.27.08.13.21.25.17.43s-.3.18-.45.25a26.53,26.53,0,0,0-5.73,3.35A28.86,28.86,0,0,0,50.31,351Z" transform="translate(-27.02 -323.78)"/><path class="cls-11" d="M37.83,370.29c.89-.17,1.78-.33,2.67-.52l3.61-.8a3.71,3.71,0,0,1,.48-.05,2,2,0,0,1,0,.24,26.07,26.07,0,0,0,4.15,12.26c-1.28.57-2.57,1.13-3.85,1.71-.67.3-1.33.63-2,.95a.83.83,0,0,1-.55.14,33.67,33.67,0,0,1-3.5-8.16A32.21,32.21,0,0,1,37.83,370.29Z" transform="translate(-27.02 -323.78)"/><path class="cls-11" d="M98.77,383.93a.63.63,0,0,1-.46-.08c-1.8-.93-3.66-1.73-5.53-2.5-.11-.05-.25-.07-.3-.22s.09-.27.16-.39a25.39,25.39,0,0,0,3.74-12.21c1.44.32,2.87.63,4.3,1,.84.2,1.71.25,2.53.51-.08.67-.15,1.33-.24,2a32.69,32.69,0,0,1-4.11,11.76Z" transform="translate(-27.02 -323.78)"/><path class="cls-11" d="M79.82,343a8.11,8.11,0,0,1,1-1.75c.73-1.26,1.47-2.51,2.13-3.82a1,1,0,0,1,.29-.43,33.36,33.36,0,0,1,11.9,8.54.44.44,0,0,1-.18.33c-1.5,1.5-2.89,3.11-4.29,4.71,0,0-.1.06-.15.09a1.32,1.32,0,0,1-.22-.18,26,26,0,0,0-9.07-6.85A7.85,7.85,0,0,1,79.82,343Z" transform="translate(-27.02 -323.78)"/><path class="cls-11" d="M63.3,399.28a19.11,19.11,0,0,1,.3-2.38c.17-1.32.25-2.65.37-4,0-.17-.06-.36.11-.5.14,0,.29,0,.43.05a26,26,0,0,0,12.73-.18c.09.79.19,1.59.25,2.38.11,1.33.28,2.65.47,4a3.58,3.58,0,0,1,0,.57,33.12,33.12,0,0,1-14.68.06Z" transform="translate(-27.02 -323.78)"/><path class="cls-11" d="M76.05,334.9a25.41,25.41,0,0,1-.51,3.26c-.2,1.19-.46,2.36-.69,3.54a24.89,24.89,0,0,0-6.73-.25l-2.21.22a17.94,17.94,0,0,1-.59-2.71c-.23-1.14-.43-2.3-.62-3.45a.62.62,0,0,0-.35-.51,35.07,35.07,0,0,1,5.6-.56A34.6,34.6,0,0,1,76.05,334.9Z" transform="translate(-27.02 -323.78)"/><path class="cls-11" d="M44.83,363.79c-2.09-.28-4.19-.55-6.28-.84-.28,0-.5,0-.62.29A32.82,32.82,0,0,1,41.43,352a.51.51,0,0,1,.36.08L47.21,355c.08.05.22.07.21.22s-.06.28-.12.41A23.71,23.71,0,0,0,45.92,359,21.2,21.2,0,0,0,44.83,363.79Z" transform="translate(-27.02 -323.78)"/><path class="cls-11" d="M93.35,355c1.21-.67,2.42-1.34,3.61-2,.79-.46,1.64-.81,2.39-1.33a31.82,31.82,0,0,1,3,7.86,30.12,30.12,0,0,1,.6,3.12l-6.84.89c0-.15,0-.29,0-.43A26.07,26.07,0,0,0,93.35,355Z" transform="translate(-27.02 -323.78)"/><path class="cls-11" d="M47,390.12c1.52-1.59,3.17-3.05,4.76-4.56a.22.22,0,0,1,.21-.09c.15,0,.21.14.3.22a26.16,26.16,0,0,0,7,4.91c-.72,1.65-1.51,3.27-2.29,4.88-.22.45-.41.9-.62,1.36A32,32,0,0,1,47,390.12Z" transform="translate(-27.02 -323.78)"/><path class="cls-11" d="M89.25,385.27a13.12,13.12,0,0,1,2,1.75c.91.82,1.78,1.68,2.67,2.52.08.08.15.17.27.18a.48.48,0,0,1-.14.44,33.42,33.42,0,0,1-9,6.52h0c-.59-1.25-1.19-2.5-1.77-3.75-.39-.82-.82-1.63-1.14-2.49a25.41,25.41,0,0,0,5.52-3.65A16.42,16.42,0,0,1,89.25,385.27Z" transform="translate(-27.02 -323.78)"/><path class="cls-11" d="M94.19,389.72l.12.1Z" transform="translate(-27.02 -323.78)"/><path class="cls-8" d="M77.24,392.3a26,26,0,0,1-12.73.18c-.14,0-.29,0-.43-.05a12.16,12.16,0,0,1,.21-2.69c.17,0,.18-.2.23-.33.39-1,.78-2.08,1.18-3.12a75.11,75.11,0,0,1,3.16-7.46.62.62,0,0,1,.69-.43,8.73,8.73,0,0,0,2,0,.78.78,0,0,1,1,.54c1.31,2.68,2.35,5.47,3.44,8.24A19.83,19.83,0,0,0,77,389.82,13.69,13.69,0,0,1,77.24,392.3Z" transform="translate(-27.02 -323.78)"/><path class="cls-8" d="M89.25,385.27a16.42,16.42,0,0,0-1.7,1.53A25.41,25.41,0,0,1,82,390.45a17.89,17.89,0,0,1-1-2.11c-1.73-3.68-3.46-7.36-5.43-10.92a1.14,1.14,0,0,1-.09-.26A5.2,5.2,0,0,0,77.41,376a3,3,0,0,0,1.15-1.17c.27.1.41.35.6.54,3.09,3.24,6.36,6.29,9.63,9.35C89,384.89,89.2,385,89.25,385.27Z" transform="translate(-27.02 -323.78)"/><path class="cls-8" d="M59.23,390.6a26.16,26.16,0,0,1-7-4.91c-.09-.08-.15-.21-.3-.22s.11-.23.2-.31c3.52-3.28,7-6.56,10.34-10.05l.33.27a10.55,10.55,0,0,0,2.93,2c-1,2-2.05,3.93-3,5.92-1.11,2.26-2.16,4.55-3.24,6.83C59.42,390.27,59.32,390.44,59.23,390.6Z" transform="translate(-27.02 -323.78)"/><path class="cls-12" d="M65.76,377.35a10.55,10.55,0,0,1-2.93-2l-.33-.27c1.18-1.32,2.35-2.64,3.44-4a1,1,0,0,0,.24-.7,5.2,5.2,0,0,0-.76-2.59c-.29-.45-.71-.55-1.07-.79.05-.11.16-.09.25-.11a1.44,1.44,0,0,0,.26-2.76,1.41,1.41,0,0,0-1.68.57,1.57,1.57,0,0,0,.22,1.78c.08.09.21.16.19.31a.62.62,0,0,1-.38,0l-3.8-.89a9.47,9.47,0,0,1,.41-1.9,5.27,5.27,0,0,1,.81-1.81,19.51,19.51,0,0,1,2.22.91l2.74,1.06a.64.64,0,0,0,.6,0c.62-.34,1.35-.45,1.83-1.08s.88-.93.82-1.65c.2,0,.22.22.31.34a1.45,1.45,0,0,0,1.62.54,1.5,1.5,0,0,0,1-1.4,1.44,1.44,0,0,0-2.66-.7c-.08.13-.09.32-.28.37a4.46,4.46,0,0,1-.16-1.45c-.12-.93-.19-1.85-.27-2.77a11.72,11.72,0,0,1,2.44-.22,9.88,9.88,0,0,0,1.54.09c-.19,1.77-.38,3.54-.41,5.33a1.2,1.2,0,0,0,.3.81,4.36,4.36,0,0,0,2.09,1.53,1.07,1.07,0,0,0,1,0,.35.35,0,0,1,.33,0c0,.24-.32.31-.31.56h0a.93.93,0,0,0-.12,1.24l.1.19c.21.52.53.71,1.23.69a1.33,1.33,0,0,0,1.27-1,1.49,1.49,0,0,0-.44-1.48,2,2,0,0,0-1.59-.26s.08-.11.13-.13c1.51-.54,3-1.21,4.43-1.87a.56.56,0,0,0,0,.38,13.07,13.07,0,0,1,1.14,3.45c-1.67.37-3.33.73-5,1.2a1.64,1.64,0,0,0-.92.68,4.89,4.89,0,0,0-.78,2.72c0,.4.39.54.42.88a1.45,1.45,0,0,1-.54-.15,1.13,1.13,0,0,0-1.36.43h0c-.25,0-.33.23-.4.43a1.77,1.77,0,0,0,.17,1.44l-.08.08a2.49,2.49,0,0,0-2-1.22,5.06,5.06,0,0,0-2.23.35c-.28.06-.3.51-.59.65v-.62a1.39,1.39,0,0,0-1.57-1.37,1.46,1.46,0,0,0-1.2,1.77,1.41,1.41,0,0,0,1.75,1c.21-.06.42-.14.63-.22a14.54,14.54,0,0,1-1.13,1.95C66.47,376.2,66.1,376.77,65.76,377.35Zm4.7-6a4.11,4.11,0,1,0,.06-8.22,4.11,4.11,0,0,0-.06,8.22Z" transform="translate(-27.02 -323.78)"/><path class="cls-12" d="M77,389.82A19.83,19.83,0,0,1,76,387.15c-1.09-2.77-2.13-5.56-3.44-8.24a.78.78,0,0,0-1-.54,8.73,8.73,0,0,1-2,0,.62.62,0,0,0-.69.43,75.11,75.11,0,0,0-3.16,7.46c-.4,1-.79,2.08-1.18,3.12,0,.13-.06.29-.23.33a36.86,36.86,0,0,1,.54-4.44,29.22,29.22,0,0,1,2.8-8.49,25.49,25.49,0,0,1,2.64-4.09c.39-.49.39-.49.77,0a26.54,26.54,0,0,1,4.14,7.54,39.93,39.93,0,0,1,1.89,9.49S77,389.79,77,389.82Z" transform="translate(-27.02 -323.78)"/><path class="cls-12" d="M78.56,374.84A3,3,0,0,1,77.41,376a5.2,5.2,0,0,1-1.93,1.15,6.71,6.71,0,0,1-.7-1.14c-.56-.9-1.1-1.81-1.65-2.72l.08-.08c1,.72,1.75.68,2.36-.11a1.82,1.82,0,0,0,.19-1.47,21.36,21.36,0,0,1,1.85,2.07A4.68,4.68,0,0,1,78.56,374.84Z" transform="translate(-27.02 -323.78)"/><path class="cls-8" d="M67.91,373.66c-.21.08-.42.16-.63.22a1.41,1.41,0,0,1-1.75-1,1.46,1.46,0,0,1,1.2-1.77,1.39,1.39,0,0,1,1.57,1.37v.62Zm-1-.07c.26-.06.64.15.81-.27s.39-.57.4-.92a1.24,1.24,0,0,0-2.47.12A1.43,1.43,0,0,0,66.94,373.59Z" transform="translate(-27.02 -323.78)"/><path class="cls-8" d="M96.38,368.53a25.39,25.39,0,0,1-3.74,12.21c-.07.12-.19.22-.16.39A9.38,9.38,0,0,1,89.89,380c0-.15-.14-.21-.24-.29-2.15-1.71-4.3-3.42-6.37-5.23A20.92,20.92,0,0,1,80.61,372a7.56,7.56,0,0,0,.85-2.82,1.6,1.6,0,0,1,.74-.19c2.51-.4,5-.51,7.58-.67,1.33-.09,2.67,0,4-.26A13.71,13.71,0,0,1,96.38,368.53Z" transform="translate(-27.02 -323.78)"/><path class="cls-8" d="M81.58,365.6a13.07,13.07,0,0,0-1.14-3.45.56.56,0,0,1,0-.38c4.23-2,8.31-4.27,12.4-6.53.18-.1.38-.17.56-.26a26.07,26.07,0,0,1,2.74,8.09c0,.14,0,.28,0,.43-3.19.42-6.38.83-9.57,1.28C84.9,365,83.24,365.33,81.58,365.6Z" transform="translate(-27.02 -323.78)"/><path class="cls-11" d="M93.77,368c-1.32.21-2.66.17-4,.26-2.53.16-5.07.27-7.58.67a1.6,1.6,0,0,0-.74.19,2.21,2.21,0,0,0-1.1.27,1.59,1.59,0,0,0-.56,1.5,3,3,0,0,0,.81,1.05,20.92,20.92,0,0,0,2.67,2.57c2.07,1.81,4.22,3.52,6.37,5.23.1.08.23.14.24.29a5.35,5.35,0,0,1-1.55-.62,33.2,33.2,0,0,1-8.2-5.12,25,25,0,0,1-4.39-5c.36-.24.35-.62.4-1a21.7,21.7,0,0,1,4.75-1.23,25,25,0,0,1,5-.3,42.48,42.48,0,0,1,7.68,1.05C93.63,367.89,93.73,367.89,93.77,368Z" transform="translate(-27.02 -323.78)"/><path class="cls-8" d="M75.76,371.64a1.82,1.82,0,0,1-.19,1.47c-.61.79-1.38.83-2.36.11a1.77,1.77,0,0,1-.17-1.44c.07-.2.15-.39.4-.43-.08.31-.16.62-.25.93a.44.44,0,0,0,0,.44c.49.7.71.75,1.54.61.52-.09.56-.44.68-.8a.84.84,0,0,0-.19-1,1,1,0,0,0-1.33-.34,4.28,4.28,0,0,1-.51.15,1.13,1.13,0,0,1,1.36-.43,1.45,1.45,0,0,0,.54.15Z" transform="translate(-27.02 -323.78)"/><path class="cls-12" d="M76.15,368.35c-.05.36,0,.74-.4,1C75.13,368.49,75.24,368.62,76.15,368.35Z" transform="translate(-27.02 -323.78)"/><path class="cls-8" d="M50.31,351a28.86,28.86,0,0,1,4.38-4.25,26.53,26.53,0,0,1,5.73-3.35c.15-.07.35-.08.45-.25a8.48,8.48,0,0,1,1.24,1.95,5.55,5.55,0,0,1,.24.56c-.07.24.06.44.11.65.58,2.21,1.17,4.41,1.73,6.61a31.84,31.84,0,0,1,.91,4.63,8.75,8.75,0,0,0-2.39,1.79,3.35,3.35,0,0,1-1.09-.49c-2.69-1.43-5.2-3.12-7.76-4.76A8.82,8.82,0,0,0,52.15,353,10.49,10.49,0,0,1,50.31,351Z" transform="translate(-27.02 -323.78)"/><path class="cls-8" d="M60.63,362.16a5.27,5.27,0,0,0-.81,1.81,9.47,9.47,0,0,0-.41,1.9c-1.9-.3-3.79-.64-5.7-.91-3-.41-5.92-.78-8.88-1.17A21.2,21.2,0,0,1,45.92,359a23.71,23.71,0,0,1,1.38-3.34c.06-.13.17-.25.12-.41.24-.06.4.11.57.21,3.93,2.16,7.85,4.35,11.9,6.28C60.14,361.87,60.45,361.91,60.63,362.16Z" transform="translate(-27.02 -323.78)"/><path class="cls-8" d="M72.37,356.17a9.88,9.88,0,0,1-1.54-.09,11.72,11.72,0,0,0-2.44.22c-.22-1.4-.42-2.8-.64-4.19-.52-3.31-1.17-6.59-1.81-9.87a1.22,1.22,0,0,1,0-.57l2.21-.22a24.89,24.89,0,0,1,6.73.25c-.55,3-1.12,5.93-1.64,8.9C72.89,352.45,72.65,354.31,72.37,356.17Z" transform="translate(-27.02 -323.78)"/><path class="cls-11" d="M65.1,357.5a31.84,31.84,0,0,0-.91-4.63c-.56-2.2-1.15-4.4-1.73-6.61-.05-.21-.18-.41-.11-.65.33.13.38.47.52.72A33.43,33.43,0,0,1,67,356.68a26,26,0,0,1,.45,5.77c-.34.13-.74.19-.79.66a26.64,26.64,0,0,1-8.6-4.35,38.39,38.39,0,0,1-5.7-5.41c-.09-.11-.23-.18-.22-.36A8.82,8.82,0,0,1,53.86,354c2.56,1.64,5.07,3.33,7.76,4.76a3.35,3.35,0,0,0,1.09.49,1.57,1.57,0,0,0,.64.3c.32.08.62.26,1,0,.55-.35,1-.76.82-1.5A4.29,4.29,0,0,1,65.1,357.5Z" transform="translate(-27.02 -323.78)"/><path class="cls-8" d="M68.82,360.52c.19,0,.2-.24.28-.37a1.44,1.44,0,0,1,2.66.7,1.5,1.5,0,0,1-1,1.4,1.45,1.45,0,0,1-1.62-.54c-.09-.12-.11-.32-.31-.34Zm2.69.66a1.37,1.37,0,0,0-1.33-1.47c-.33,0-1,.71-1,1a1.41,1.41,0,0,0,1.34,1.45A2.11,2.11,0,0,0,71.51,361.18Z" transform="translate(-27.02 -323.78)"/><path class="cls-12" d="M66.67,363.11c0-.47.45-.53.79-.66v.09C67.46,363.36,67.46,363.36,66.67,363.11Z" transform="translate(-27.02 -323.78)"/><path class="cls-8" d="M48.78,381.42a26.07,26.07,0,0,1-4.15-12.26,2,2,0,0,0,0-.24,12,12,0,0,1,2.84-.65.66.66,0,0,0,.53.16c2.48.06,4.95.23,7.42.42a31.93,31.93,0,0,1,3.78.44.46.46,0,0,1,.44.42,8.06,8.06,0,0,0,.71,2.09.65.65,0,0,1-.19.87c-2.63,2.61-5.57,4.86-8.44,7.2-.16.12-.36.21-.4.45A14.27,14.27,0,0,1,48.78,381.42Z" transform="translate(-27.02 -323.78)"/><path class="cls-12" d="M51.28,380.32c0-.24.24-.33.4-.45,2.87-2.34,5.81-4.59,8.44-7.2a.65.65,0,0,0,.19-.87,8.06,8.06,0,0,1-.71-2.09.46.46,0,0,0-.44-.42,31.93,31.93,0,0,0-3.78-.44c-2.47-.19-4.94-.36-7.42-.42a.66.66,0,0,1-.53-.16,10.61,10.61,0,0,1,2.42-.55,34.09,34.09,0,0,1,6.91-.61,26.8,26.8,0,0,1,8.5,1.62c.57.21.56.22.24.7a26.94,26.94,0,0,1-8.61,8.12,46.94,46.94,0,0,1-5.29,2.69C51.5,380.29,51.4,380.36,51.28,380.32Z" transform="translate(-27.02 -323.78)"/><path class="cls-8" d="M63.59,366.78c0-.15-.11-.22-.19-.31a1.57,1.57,0,0,1-.22-1.78,1.41,1.41,0,0,1,1.68-.57,1.44,1.44,0,0,1-.26,2.76c-.09,0-.2,0-.25.11Zm1.08-.14a1.68,1.68,0,0,0,1-1.05,1.38,1.38,0,0,0-1.5-1.3,1.94,1.94,0,0,0-1,1A1.37,1.37,0,0,0,64.67,366.64Z" transform="translate(-27.02 -323.78)"/><path class="cls-8" d="M79.82,343a7.85,7.85,0,0,0,1.38.64,26,26,0,0,1,9.07,6.85,1.32,1.32,0,0,0,.22.18,10.42,10.42,0,0,1-1.77,2c-.2,0-.32.14-.46.24-2.48,1.62-4.94,3.26-7.49,4.76a16,16,0,0,1-2.7,1.39,7.56,7.56,0,0,0-2.39-1.68,3.56,3.56,0,0,1,.13-1.34c.59-3.24,1.52-6.4,2.35-9.59a3.56,3.56,0,0,0,.26-1.16A8.76,8.76,0,0,1,79.82,343Z" transform="translate(-27.02 -323.78)"/><path class="cls-11" d="M78.42,345.32a3.56,3.56,0,0,1-.26,1.16c-.83,3.19-1.76,6.35-2.35,9.59a3.56,3.56,0,0,0-.13,1.34,2,2,0,0,0-.11.95c0,.49.82,1.27,1.25,1.18a2.7,2.7,0,0,0,1.25-.45,16,16,0,0,0,2.7-1.39c2.55-1.5,5-3.14,7.49-4.76.14-.1.26-.24.46-.24a2.57,2.57,0,0,1-.71.89,36.5,36.5,0,0,1-7.09,6.21,25.23,25.23,0,0,1-6.77,3.07,1.27,1.27,0,0,0-.89-.6,26.57,26.57,0,0,1,1.7-10.1,45,45,0,0,1,3.2-6.59C78.23,345.47,78.27,345.35,78.42,345.32Z" transform="translate(-27.02 -323.78)"/><path class="cls-8" d="M75.37,364.4c0-.25.3-.32.31-.56l.15-.07a2,2,0,0,1,1.59.26,1.49,1.49,0,0,1,.44,1.48,1.33,1.33,0,0,1-1.27,1c-.7,0-1-.17-1.23-.69l.76.42a.5.5,0,0,0,.4.11A1.22,1.22,0,0,0,77.61,365a.8.8,0,0,0-.39-.75,1.06,1.06,0,0,0-1.42-.08A2.14,2.14,0,0,1,75.37,364.4Z" transform="translate(-27.02 -323.78)"/><path class="cls-12" d="M73.26,362.27a1.27,1.27,0,0,1,.89.6l0,0C73.21,363.22,73.21,363.22,73.26,362.27Z" transform="translate(-27.02 -323.78)"/><path class="cls-8" d="M70.46,371.36a4.11,4.11,0,1,1,4.14-4.08A4.09,4.09,0,0,1,70.46,371.36Z" transform="translate(-27.02 -323.78)"/><path class="cls-11" d="M75.37,364.4a2.14,2.14,0,0,0,.43-.21,1.06,1.06,0,0,1,1.42.08.8.8,0,0,1,.39.75,1.22,1.22,0,0,1-1.09,1.33.5.5,0,0,1-.4-.11l-.76-.42-.1-.19.12-1.24Z" transform="translate(-27.02 -323.78)"/><path class="cls-8" d="M75.38,364.39l-.12,1.24A.93.93,0,0,1,75.38,364.39Z" transform="translate(-27.02 -323.78)"/><path class="cls-11" d="M66.94,373.59a1.43,1.43,0,0,1-1.26-1.07,1.24,1.24,0,0,1,2.47-.12c0,.35-.28.61-.4.92S67.2,373.53,66.94,373.59Z" transform="translate(-27.02 -323.78)"/><path class="cls-12" d="M80.61,372a3,3,0,0,1-.81-1.05,1.59,1.59,0,0,1,.56-1.5,2.21,2.21,0,0,1,1.1-.27A7.56,7.56,0,0,1,80.61,372Z" transform="translate(-27.02 -323.78)"/><path class="cls-11" d="M73.43,371.36a4.28,4.28,0,0,0,.51-.15,1,1,0,0,1,1.33.34.84.84,0,0,1,.19,1c-.12.36-.16.71-.68.8-.83.14-1,.09-1.54-.61a.44.44,0,0,1,0-.44c.09-.31.17-.62.25-.93Z" transform="translate(-27.02 -323.78)"/><path class="cls-12" d="M65.1,357.5a4.29,4.29,0,0,0,0,.62c.16.74-.27,1.15-.82,1.5-.34.23-.64.05-1,0a1.57,1.57,0,0,1-.64-.3A8.75,8.75,0,0,1,65.1,357.5Z" transform="translate(-27.02 -323.78)"/><path class="cls-11" d="M71.51,361.18a2.11,2.11,0,0,1-1,1,1.41,1.41,0,0,1-1.34-1.45c0-.3.69-1,1-1A1.37,1.37,0,0,1,71.51,361.18Z" transform="translate(-27.02 -323.78)"/><path class="cls-11" d="M64.67,366.64a1.37,1.37,0,0,1-1.47-1.31,1.94,1.94,0,0,1,1-1,1.38,1.38,0,0,1,1.5,1.3A1.68,1.68,0,0,1,64.67,366.64Z" transform="translate(-27.02 -323.78)"/><path class="cls-12" d="M78.07,359.09a2.7,2.7,0,0,1-1.25.45c-.43.09-1.22-.69-1.25-1.18a2,2,0,0,1,.11-.95A7.56,7.56,0,0,1,78.07,359.09Z" transform="translate(-27.02 -323.78)"/><path class="cls-13" d="M203.09,383.8q-2.1-11.57-5-24.19l5-.51,2.93,18.81q2.25-9.87,3.68-17.87l4.75.58q-3.6,15.58-5.37,23Z" transform="translate(-27.02 -323.78)"/><path class="cls-13" d="M218.76,383.8q-2.1-11.57-5-24.19l5-.51,2.94,18.81Q224,368,225.42,360l4.76.58q-3.6,15.58-5.38,23Z" transform="translate(-27.02 -323.78)"/><path class="cls-13" d="M245.05,369l-3.9,0q-.09-4.37-2.2-4.59h-.31c-1.26,0-2.28.83-3,2.49a17,17,0,0,0-1.17,7.06v.75c.07,3.41,1.26,5.12,3.59,5.12q2.4,0,2.4-3.92c0-.26,0-.53,0-.8l-3.41,0,.17-3.86,8.77.13v4.21l-1.75,0q0,9-7.14,9-6.61,0-6.61-10.55c0-.58,0-1.19.05-1.83q.6-12.37,7.88-12.9H239q6.06,0,6.06,8.17C245.1,368,245.08,368.45,245.05,369Z" transform="translate(-27.02 -323.78)"/><path class="cls-13" d="M260.75,368.63h-3.81v-.46q0-4-2.26-4c-1.62,0-2.42,2.49-2.42,7.46,0,5.59.84,8.39,2.54,8.39h0q2.55,0,2.55-4.12v-1.7h4.25v1.29q0,8.55-7,8.94l-.41,0q-6.62,0-6.61-12.7,0-12.44,6.8-12.43,6.4,0,6.4,8.31C260.77,367.93,260.77,368.27,260.75,368.63Z" transform="translate(-27.02 -323.78)"/><path class="cls-13" d="M269.27,366.43c3.77.2,5.65,2.1,5.65,5.68V384.3l-4,.07-.14-1.63a4.15,4.15,0,0,1-3.28,1.41,7.46,7.46,0,0,1-1.89-.28c-2-.5-3-2.07-3-4.7a9.43,9.43,0,0,1,.06-1c.23-2.72,2.15-4.07,5.78-4.07a19.37,19.37,0,0,1,2.3.15v-2c0-1.61-.51-2.42-1.53-2.42h-.06l-.23,0c-1.11,0-1.66.91-1.66,2.72v.25l-4.09-.34c0-4,1.92-6,5.77-6ZM270.71,380v-3a6.84,6.84,0,0,0-1.34-.16,2.2,2.2,0,0,0-2.13,1.05,2.52,2.52,0,0,0-.34,1.19,1.66,1.66,0,0,0,.55,1.22,1.58,1.58,0,0,0,1.12.41A4.73,4.73,0,0,0,270.71,380Z" transform="translate(-27.02 -323.78)"/><path class="cls-13" d="M280.86,372.25l.17,12.44-4.21,0q0-7.91-.53-17.74l3.16-.34.17,2.8A3.61,3.61,0,0,1,283,367.1a6.51,6.51,0,0,1,.75,0,3.81,3.81,0,0,1,3.16,1.36q1.26,1.62,1.27,5.13l-3.81.38c0-.19,0-.38,0-.57,0-1.83-.48-2.74-1.43-2.74h-.07A2,2,0,0,0,280.86,372.25Z" transform="translate(-27.02 -323.78)"/><path class="cls-13" d="M289.6,384q.11-4.52.1-9.23,0-7.24-.24-15a38.51,38.51,0,0,1,5.18-.41,10.88,10.88,0,0,1,5.33,1q2.76,1.59,2.76,6.54v.57c-.11,3.61-.93,5.93-2.45,6.94a10.62,10.62,0,0,1-5.64,1.62c0,.36,0,.72,0,1.1,0,1.9.09,4.15.29,6.75ZM294,363.78l.12,8.4q3.19-.18,3.75-2.28a7.73,7.73,0,0,0,.25-2,9.19,9.19,0,0,0-.34-2.44,2.39,2.39,0,0,0-2.58-1.83A6,6,0,0,0,294,363.78Z" transform="translate(-27.02 -323.78)"/><path class="cls-13" d="M311.06,366.43c3.76.2,5.65,2.1,5.65,5.68V384.3l-4,.07-.13-1.63a4.16,4.16,0,0,1-3.28,1.41,7.46,7.46,0,0,1-1.89-.28q-3-.75-3-4.7c0-.32,0-.67.05-1,.23-2.72,2.16-4.07,5.79-4.07a19.5,19.5,0,0,1,2.3.15v-2c0-1.61-.51-2.42-1.53-2.42h-.07l-.22,0c-1.11,0-1.67.91-1.67,2.72v.25l-4.08-.34c0-4,1.92-6,5.77-6ZM312.5,380v-3a6.84,6.84,0,0,0-1.34-.16,2.2,2.2,0,0,0-2.13,1.05,2.52,2.52,0,0,0-.34,1.19,1.66,1.66,0,0,0,.55,1.22,1.55,1.55,0,0,0,1.11.41A4.73,4.73,0,0,0,312.5,380Z" transform="translate(-27.02 -323.78)"/><path class="cls-13" d="M322.65,372.25l.17,12.44-4.21,0q0-7.91-.53-17.74l3.16-.34.17,2.8a3.6,3.6,0,0,1,3.36-2.35,6.8,6.8,0,0,1,.76,0,3.82,3.82,0,0,1,3.16,1.36,8.51,8.51,0,0,1,1.27,5.13l-3.81.38c0-.19,0-.38,0-.57,0-1.83-.47-2.74-1.42-2.74h-.07A2,2,0,0,0,322.65,372.25Z" transform="translate(-27.02 -323.78)"/><path class="cls-13" d="M334,361.45l3.89-.26v5.68l3.28-.08.05,3.24-3.33.16V378c0,1.82.78,2.73,2.32,2.73a5.12,5.12,0,0,0,1.05-.12l-.16,3.78a14.53,14.53,0,0,1-1.56.1q-5.43,0-5.53-5.6V370.5l-2.81.17-.07-3.83,2.88,0Z" transform="translate(-27.02 -323.78)"/><path class="cls-13" d="M342.42,378.46l3.93-.19v.23c0,1.76.55,2.65,1.63,2.68h.07c1.06,0,1.58-.51,1.58-1.53v-.12c0-1.12-1.08-2-3.11-2.72a5,5,0,0,1-3.67-3.46,6.58,6.58,0,0,1-.22-1.65,5.06,5.06,0,0,1,.74-2.68,4.37,4.37,0,0,1,3.43-2.16,9.89,9.89,0,0,1,1.2-.07,6.54,6.54,0,0,1,2.7.53,4.27,4.27,0,0,1,2.21,2.11,5.11,5.11,0,0,1,.41,2.1,7.42,7.42,0,0,1-.08,1.13l-3.68.09a5.67,5.67,0,0,0,.05-.79c0-1.15-.36-1.76-1.09-1.84l-.24,0a1.51,1.51,0,0,0-1.53,1.15,2.33,2.33,0,0,0-.14.72,1.7,1.7,0,0,0,.76,1.39,13.88,13.88,0,0,0,3.15,1.68,4.75,4.75,0,0,1,3.06,4.44,5.26,5.26,0,0,1-.75,2.62,4.82,4.82,0,0,1-3.73,2.46,8.09,8.09,0,0,1-1.08.08,6.54,6.54,0,0,1-3.5-1C343.14,382.83,342.45,381.09,342.42,378.46Z" transform="translate(-27.02 -323.78)"/></svg>