<svg id="Слой_1" data-name="Слой 1" xmlns="http://www.w3.org/2000/svg" viewBox="0 0 497.42 86.94"><defs><style>.cls-1{fill:#565da4;}.cls-2{fill:#5e70b2;}.cls-14,.cls-3{fill:#201600;}.cls-4{fill:#07080a;}.cls-5{fill:#080a0b;}.cls-6{fill:#171a1c;opacity:0.58;}.cls-7{fill:#f0bc47;}.cls-8{fill:#19191a;}.cls-9{fill:#eee;}.cls-10{fill:#cbcbcb;}.cls-11{fill:gray;}.cls-12{fill:#666;}.cls-13{fill:#fff;}.cls-14{font-size:21.4px;font-family:DimboRegular, Dimbo;}</style></defs><title>logotype-big</title><path class="cls-1" d="M162.48,46.19c-1.44-1.34-9.63-4.07-9.63-4.07s-.81-.65-.75-.74,3.35.07,3.63-.08,4-1,2.1-3.91-4-3.78-5.61-3.78-4.41.67-5.1,1.7a5.36,5.36,0,0,0,.1,4.66c.72.91-3.42-3-3.42-3a12.19,12.19,0,0,1-2.44-.06c-.35-.17-4.75-10.5-9.07-12.35a39.88,39.88,0,0,0-6.39-2.11A27.39,27.39,0,0,0,123,22c-1.23-.15-9.16,0-9.16,0s-2.09-1.66-13.24-1.76C89.46,20.29,87.37,22,87.37,22s-7.92-.15-9.16,0a36.84,36.84,0,0,0-9.28,2.65C64.62,26.45,60.21,36.78,59.86,37a12.19,12.19,0,0,1-2.44.06S53.28,40.88,54,40a5.39,5.39,0,0,0,.11-4.66c-.7-1-3.48-1.7-5.11-1.7s-3.7.86-5.61,3.78,1.82,3.76,2.1,3.91,3.58,0,3.63.08-.75.74-.75.74-8.19,2.73-9.63,4.07S38.37,84.72,38.45,88s2.39,3.55,2.39,3.55H58.9c1.73,0,1.05-1,1.05-1h81.32s-.67,1,1,1h18.06s2.31-.23,2.39-3.55c0-2,.45-16,.46-27.26C163.23,53.13,163.06,46.74,162.48,46.19Z" transform="translate(-12.79 -12.42)"/><path class="cls-2" d="M152.33,42.6s-.81-.64-.75-.74,3.35.08,3.63-.07,4-1,2.1-3.91-4-3.78-5.61-3.78-4.4.67-5.1,1.7a5.36,5.36,0,0,0,.1,4.66c.72.91-3.42-3-3.42-3a12.19,12.19,0,0,1-2.44-.06c-.35-.17-4.75-10.51-9.07-12.35A38.9,38.9,0,0,0,125.38,23h0s3.11,17.1-1.35,17.93-4.09.7-6.77,2.42-25,9.85-26.36,10.86S80.58,59.53,80,65.57s82.72-4.3,82.73-4.3c0-7.65-.17-14.05-.75-14.59C160.52,45.34,152.33,42.6,152.33,42.6Z" transform="translate(-12.79 -12.42)"/><path class="cls-3" d="M142.32,92.59a2.05,2.05,0,0,1-2-.92l0,0H60.94l0,0a2.05,2.05,0,0,1-2,.92H40.84c-1.2-.12-3.3-1.21-3.39-4.53l0-.89c-1.06-40.13,0-41.16.63-41.71,1-.93,4.41-2.3,7-3.25l-.06,0H45c-.67-.23-2.44-.84-3-2.38a3.33,3.33,0,0,1,.56-2.95c2.3-3.5,4.78-4.23,6.45-4.23s4.9.63,5.93,2.14a5,5,0,0,1,.65,2.6l1.15-1.07L57,36l.43,0c.67,0,1.39,0,1.79,0,.13-.23.31-.58.48-.91,1.66-3.2,5.1-9.86,8.8-11.44A37.47,37.47,0,0,1,78.09,21c1.17-.14,7.43,0,9,0,1-.54,4.23-1.68,13.49-1.76,9.28.08,12.51,1.22,13.52,1.76,1.58,0,7.84-.13,9,0a26.22,26.22,0,0,1,3,.56,40.59,40.59,0,0,1,6.55,2.16c3.71,1.58,7.14,8.24,8.8,11.44.17.33.35.68.48.91.43,0,1.19,0,1.79,0l.43,0,.31.29,1.15,1.07a5,5,0,0,1,.65-2.6c1-1.51,4.37-2.14,5.93-2.14s4.16.73,6.45,4.23a3.33,3.33,0,0,1,.56,2.95c-.53,1.54-2.3,2.15-3,2.38l-.12,0c2.61.95,6,2.32,7,3.25.48.45,1.08,1,1.07,15.32,0,6.77-.16,15.65-.44,26.39l0,.89c-.08,3.32-2.19,4.41-3.29,4.52ZM39.53,46.84c-.29.9-1,6.51-.1,40.28l0,.89c.06,2.41,1.47,2.58,1.49,2.58H58.68l-.68-1h85.22l-.68,1H160.3c.27-.06,1.42-.42,1.47-2.58l0-.9c.28-10.72.43-19.58.44-26.33,0-11-.37-13.42-.54-13.94-1.12-.87-5.95-2.71-9.15-3.77l-.17-.06-.14-.11c-.69-.55-1.48-1.18-1-2,.31-.55.57-.55,2.3-.53.6,0,1.59,0,1.89,0l.19-.06c.38-.13,1.52-.52,1.73-1.14a1.61,1.61,0,0,0-.34-1.2c-1.81-2.75-3.6-3.33-4.78-3.33-1.7,0-3.92.73-4.28,1.26a4.64,4.64,0,0,0,.06,3.48,1,1,0,0,1,0,1.49c-.75.7-.85.65-4.55-2.81-2,.08-2.34-.1-2.51-.18-.37-.18-.47-.37-1.22-1.81-1.3-2.52-4.76-9.22-7.81-10.52a39.06,39.06,0,0,0-6.22-2.06c-1.5-.35-2.51-.48-2.78-.52-.85-.1-5.86-.05-9,0h-.35l-.29-.23h0s-2.35-1.45-12.62-1.54C90.3,21.28,88,22.75,88,22.76l-.26.17-.34,0c-3.16-.06-8.18-.11-9,0a35.61,35.61,0,0,0-9,2.58c-3,1.3-6.51,8-7.81,10.52-.75,1.44-.84,1.63-1.22,1.81-.17.08-.53.25-2.51.18-3.7,3.46-3.79,3.51-4.55,2.81a1,1,0,0,1,0-1.49,4.59,4.59,0,0,0,.06-3.48c-.36-.53-2.58-1.26-4.28-1.26-1.18,0-3,.58-4.77,3.33a1.57,1.57,0,0,0-.35,1.2c.21.62,1.36,1,1.73,1.14l.19.06c.3,0,1.29,0,1.89,0,1.73,0,2,0,2.3.53.48.84-.31,1.47-1,2l-.14.11-.17.06C45.48,44.13,40.64,46,39.53,46.84Zm122.27.08Zm-.14-.17ZM45.87,40.37l.09.05Zm109.48,0-.09.05Z" transform="translate(-12.79 -12.42)"/><ellipse class="cls-4" cx="88.42" cy="37.3" rx="8.36" ry="1.4"/><path class="cls-5" d="M43.59,57.08a1.61,1.61,0,0,0,1.23,1.39,51.62,51.62,0,0,0,10.41,1c8.14.13,14,.39,14.71,0s2.71-2.58-2.23-5.13S41.73,42,43.59,57.08Z" transform="translate(-12.79 -12.42)"/><path class="cls-5" d="M156.9,57.08a1.61,1.61,0,0,1-1.23,1.39,51.62,51.62,0,0,1-10.41,1c-8.14.13-14,.39-14.71,0s-2.71-2.58,2.23-5.13S158.76,42,156.9,57.08Z" transform="translate(-12.79 -12.42)"/><path class="cls-6" d="M100.61,25.1S75,24.72,69.78,27.65c-1.89,1.07-7.19,9.72-9.25,13.16a.92.92,0,0,0,.79,1.4H75.14s6.58-1.41,7.28-1.79,18.19,0,18.19,0,6.38-.14,11.59-.17l9.54-14.51C112.51,24.93,100.61,25.1,100.61,25.1Z" transform="translate(-12.79 -12.42)"/><path class="cls-6" d="M118.8,40.42c.7.38,7.28,1.79,7.28,1.79H139.9a.92.92,0,0,0,.79-1.4c-2.06-3.44-7.36-12.09-9.25-13.16-1.65-.93-5.38-1.53-9.7-1.91L112.2,40.25A52.85,52.85,0,0,1,118.8,40.42Z" transform="translate(-12.79 -12.42)"/><path class="cls-6" d="M118.8,40.42c.7.38,7.28,1.79,7.28,1.79H139.9a.92.92,0,0,0,.79-1.4c-2.06-3.44-7.36-12.09-9.25-13.16-1.65-.93-5.38-1.53-9.7-1.91L112.2,40.25A52.85,52.85,0,0,1,118.8,40.42Z" transform="translate(-12.79 -12.42)"/><circle class="cls-5" cx="38.35" cy="59.47" r="4.43"/><circle class="cls-5" cx="138.44" cy="59.47" r="4.43"/><path class="cls-5" d="M94.82,75.48l-29.89-.71a.32.32,0,0,0-.25.52l1.53,3.52a.31.31,0,0,0,.24.13l28.36.8a.32.32,0,0,0,.33-.31V75.81A.32.32,0,0,0,94.82,75.48Z" transform="translate(-12.79 -12.42)"/><path class="cls-5" d="M94.36,71.91,64.83,70.84a.32.32,0,0,1-.24-.53l2.2-2.7a.33.33,0,0,1,.25-.12H94.37a.32.32,0,0,1,.32.33v3.77A.32.32,0,0,1,94.36,71.91Z" transform="translate(-12.79 -12.42)"/><path class="cls-5" d="M106.86,71.91l29.53-1.07a.32.32,0,0,0,.24-.53l-2.2-2.7a.33.33,0,0,0-.25-.12H106.85a.32.32,0,0,0-.32.33v3.77A.32.32,0,0,0,106.86,71.91Z" transform="translate(-12.79 -12.42)"/><path class="cls-5" d="M106.4,75.48l29.89-.71a.32.32,0,0,1,.25.52L135,78.81a.31.31,0,0,1-.24.13l-28.36.8a.32.32,0,0,1-.33-.31V75.81A.32.32,0,0,1,106.4,75.48Z" transform="translate(-12.79 -12.42)"/><path class="cls-5" d="M137.28,83.64l-36.67,1.52L63.94,83.64a.33.33,0,0,0-.31.49l2,3.72s31.71.91,35,.65c3.26.26,35-.65,35-.65l2-3.72A.33.33,0,0,0,137.28,83.64Z" transform="translate(-12.79 -12.42)"/><path class="cls-7" d="M109.84,23h0Z" transform="translate(-12.79 -12.42)"/><path class="cls-3" d="M107.66,23.12H94c-.59,0-.79-.49-.28-.67l1.57-.55a.8.8,0,0,1,.27,0h10.56a.77.77,0,0,1,.27,0l1.58.55C108.44,22.63,108.24,23.12,107.66,23.12Z" transform="translate(-12.79 -12.42)"/><path class="cls-8" d="M12.79,58.83V53.32c.15-.08.08-.23.09-.35a44.09,44.09,0,0,1,1-7,49.48,49.48,0,0,1,2-6.43l1.76-3.78c.73-1.34,1.53-2.65,2.34-3.95a2.94,2.94,0,0,0,.47-.68l.89-1.25a53.09,53.09,0,0,1,4.51-5.09c1.35-1.32,2.81-2.51,4.27-3.69l1.25-.9a2.43,2.43,0,0,0,.68-.47c1.3-.81,2.61-1.6,3.95-2.33l3.78-1.76,4.06-1.43a13.33,13.33,0,0,0,1.75-.48l.28,0a44.76,44.76,0,0,1,5.63-1,9.07,9.07,0,0,0,2-.25H59c.05.15.19.09.29.1A44.24,44.24,0,0,1,67.77,14c1.69.46,3.33,1.07,5,1.66l3.75,1.75q2,1.14,4,2.38l.59.41,1.34,1c1.34,1.07,2.67,2.16,3.91,3.35a49.59,49.59,0,0,1,4.78,5.36l1,1.35a1.74,1.74,0,0,0,.39.58c.84,1.33,1.65,2.69,2.41,4.07l1.68,3.66,1.41,4,.5,1.83a51.27,51.27,0,0,1,1.26,8.8V58a52.75,52.75,0,0,1-.91,7,51.06,51.06,0,0,1-2.27,7.44l-1.76,3.76c-.75,1.35-1.54,2.67-2.37,4l-.33.48L91,82C90,83.38,88.87,84.71,87.68,86a51.21,51.21,0,0,1-5.27,4.71l-.09.08-.09.06L81,91.71l-.48.32c-1.3.84-2.63,1.62-4,2.38l-3.76,1.76L68.67,97.6a13,13,0,0,0-1.73.48,1.36,1.36,0,0,0-.2,0,47.07,47.07,0,0,1-8.6,1.25H54.37c-1.6-.14-3.21-.21-4.79-.49-1.31-.24-2.61-.51-3.92-.76l-1.82-.5-4-1.41L36,94.4l-3.87-2.31a2.22,2.22,0,0,0-.57-.39l-1.36-1C29.11,89.83,28,89,27,88c-1.43-1.3-2.73-2.71-4-4.14a1.4,1.4,0,0,0-.39-.48L21.49,82l-1-1.34a1.6,1.6,0,0,0-.35-.51s0,0,0-.06v0c-.84-1.33-1.65-2.67-2.4-4L16,72.37,14.62,68.5l-.07-.21,0,0,0-.05-.45-1.64a2,2,0,0,0,0-.24,45.35,45.35,0,0,1-1-5.78A5.31,5.31,0,0,0,12.79,58.83ZM92,55.92A35.71,35.71,0,1,0,56.16,91.6,35.7,35.7,0,0,0,92,55.92Z" transform="translate(-12.79 -12.42)"/><path class="cls-9" d="M92,55.92A35.71,35.71,0,1,1,56.32,20.19,35.71,35.71,0,0,1,92,55.92ZM61.82,23.54a34.67,34.67,0,0,0-6.1-.46,35.07,35.07,0,0,0-5.6.56c-.82,0-1.59.35-2.41.42-1.48.11-3,.36-4.42.53-.33,0-.39.16-.27.43a1.19,1.19,0,0,1,.22.73A34.32,34.32,0,0,0,35.6,30.4a39.81,39.81,0,0,0-4.14,4c-.26,0-.4-.16-.56-.31-.44-.43-.44-.43-.71.13-.47,1-1,2-1.38,3-.49,1.19-1.14,2.3-1.62,3.49a32.83,32.83,0,0,0-3.5,11.22,1.11,1.11,0,0,0-.07.22,16.15,16.15,0,0,1-.23,2c-.3,1.23-.49,2.47-.74,3.71s-.21,1.12.94,1.14a33.12,33.12,0,0,0,1.06,5.77,34.1,34.1,0,0,0,3.51,8.16c0,.25-.27.25-.42.36-.52.39-.53.39-.07.83,1.62,1.54,3.25,3.06,4.88,4.59a.84.84,0,0,0,.21.11,31.65,31.65,0,0,0,9.33,6.72c.06.2.26.24.41.29A17.51,17.51,0,0,1,45,87c1.11.62,2.22,1.26,3.32,1.9.31.17.46.1.54-.24s0-.51.21-.72a33.51,33.51,0,0,0,14.68-.06,6,6,0,0,1,.25.82c.07.33.16.35.44.18,1.34-.76,2.7-1.48,4-2.23a23.5,23.5,0,0,0,2.22-1.31h.05a33.57,33.57,0,0,0,9-6.52.48.48,0,0,0,.14-.44h0l.12.09a18.36,18.36,0,0,0,1.63-1.67c1.14-1,2.25-2,3.37-3.07.39-.36.39-.46-.08-.71-.2-.1-.44-.15-.46-.43l.09-.17a32.66,32.66,0,0,0,4.1-11.77c.1-.66.17-1.33.25-2a.71.71,0,0,1,.41,0c1,.1.82.14.7-.73v0c-.24-1.21-.47-2.42-.71-3.62-.2-1-.41-2-.62-3a30.12,30.12,0,0,0-.6-3.12,32.13,32.13,0,0,0-3-7.87A2.83,2.83,0,0,0,85,40a35.66,35.66,0,0,1-2.19-4.37c-.24-.55-.49-1.11-.75-1.66-.13-.28-.31-.46-.6-.12a.91.91,0,0,1-.59.37A33.36,33.36,0,0,0,69,25.63a1,1,0,0,1,.17-.5c.29-.62.29-.62-.37-.74l-.52-.08L65.34,24C64.17,23.81,63,23.68,61.82,23.54Z" transform="translate(-12.79 -12.42)"/><path class="cls-9" d="M82.41,90.66l-.09.08Z" transform="translate(-12.79 -12.42)"/><path class="cls-10" d="M49.07,87.92c-.18.21-.15.48-.21.72s-.23.41-.54.24c-1.1-.64-2.21-1.28-3.32-1.9a17.51,17.51,0,0,0-2.5-1.22c-.15-.05-.35-.09-.41-.29.2-.45.4-.9.61-1.35.79-1.62,1.58-3.23,2.29-4.88.09-.17.19-.33.27-.5,1.08-2.28,2.13-4.57,3.24-6.84,1-2,2-3.94,3-5.91.34-.58.7-1.15,1-1.75a13.38,13.38,0,0,0,1.12-1.94l.4-.58c.29-.14.3-.59.59-.65a5,5,0,0,1,2.22-.35,2.52,2.52,0,0,1,2,1.22c.55.91,1.09,1.82,1.64,2.72a6.93,6.93,0,0,0,.71,1.13,2.13,2.13,0,0,0,.08.27c2,3.56,3.7,7.24,5.44,10.92a17.89,17.89,0,0,0,1,2.11c.31.86.75,1.67,1.13,2.49.59,1.25,1.19,2.5,1.78,3.74a23.5,23.5,0,0,1-2.22,1.31c-1.35.75-2.71,1.47-4,2.23-.28.17-.37.15-.44-.18a6,6,0,0,0-.25-.82,5.63,5.63,0,0,0,0-.58c-.18-1.31-.35-2.63-.46-4-.07-.8-.17-1.59-.25-2.39a14.62,14.62,0,0,0-.21-2.47s0-.06,0-.08a39.35,39.35,0,0,0-1.89-9.49,26.3,26.3,0,0,0-4.14-7.54c-.37-.48-.37-.48-.76,0a25.54,25.54,0,0,0-2.65,4.09,28.81,28.81,0,0,0-2.79,8.49,35,35,0,0,0-.55,4.44,12.74,12.74,0,0,0-.2,2.69c-.17.13-.09.33-.11.49-.12,1.33-.2,2.66-.37,4A17.2,17.2,0,0,0,49.07,87.92Z" transform="translate(-12.79 -12.42)"/><path class="cls-10" d="M88.75,51.25c.21,1,.42,2,.62,3,.24,1.2.47,2.41.71,3.62v0c.12.87.3.83-.7.73a.71.71,0,0,0-.41,0c-.83-.26-1.69-.31-2.53-.51-1.43-.33-2.87-.64-4.3-1a13.66,13.66,0,0,0-2.62-.52c0-.12-.13-.12-.23-.14a43.15,43.15,0,0,0-7.68-1.06,25.63,25.63,0,0,0-5,.31A21.76,21.76,0,0,0,61.91,57c-.9.28-1,.15-.4,1a25.41,25.41,0,0,0,4.4,5,33.44,33.44,0,0,0,8.19,5.12,5.22,5.22,0,0,0,1.56.61,9.4,9.4,0,0,0,2.59,1.1c0,.15.18.17.3.22,1.87.77,3.73,1.57,5.53,2.49a.62.62,0,0,0,.46.09c0,.28.26.33.46.43.47.25.47.35.08.71-1.12,1-2.23,2.06-3.37,3.07a18.36,18.36,0,0,1-1.63,1.67L80,78.36h0a.45.45,0,0,1-.28-.18c-.88-.84-1.75-1.7-2.66-2.52a12.17,12.17,0,0,0-2-1.75c0-.27-.28-.38-.45-.54C71.29,70.31,68,67.26,64.93,64c-.19-.19-.33-.44-.6-.54a4.72,4.72,0,0,0-.95-1.13,22.72,22.72,0,0,0-1.85-2.08l-.43-.55c0-.34-.46-.49-.43-.88a4.9,4.9,0,0,1,.79-2.72,1.67,1.67,0,0,1,.92-.69c1.64-.47,3.3-.82,5-1.19s3.33-.59,5-.82c3.18-.45,6.37-.86,9.56-1.29Z" transform="translate(-12.79 -12.42)"/><path class="cls-10" d="M43.24,25.75A1.19,1.19,0,0,0,43,25c-.12-.27-.06-.39.27-.43,1.47-.17,2.94-.42,4.42-.53.82-.07,1.59-.38,2.41-.42a.61.61,0,0,1,.34.51c.2,1.15.4,2.3.63,3.45a17.94,17.94,0,0,0,.59,2.71,1,1,0,0,0,0,.57c.63,3.28,1.29,6.56,1.8,9.86.22,1.4.43,2.8.64,4.19.09.93.16,1.85.27,2.77a4.78,4.78,0,0,0,.16,1.46l0,.85c0,.71-.43,1.14-.82,1.65s-1.21.74-1.83,1.08a.67.67,0,0,1-.6,0l-2.75-1.06a19.36,19.36,0,0,0-2.21-.91,1.7,1.7,0,0,0-.75-.42c-4-1.93-8-4.12-11.89-6.28-.18-.1-.33-.27-.57-.21,0-.15-.13-.17-.22-.22l-5.41-2.94a.52.52,0,0,0-.37-.08c.48-1.19,1.13-2.3,1.62-3.49.41-1,.91-2,1.38-3,.27-.56.27-.56.71-.13.16.15.3.34.56.31-.06.24.13.35.25.48.57.6,1.14,1.18,1.7,1.78.89,1,1.77,2,2.66,3a10.87,10.87,0,0,0,1.85,2c0,.17.13.25.22.36a37.85,37.85,0,0,0,5.7,5.4,26.57,26.57,0,0,0,8.6,4.36c.79.25.79.25.79-.57a.28.28,0,0,0,0-.09,26,26,0,0,0-.44-5.77A33.67,33.67,0,0,0,48.64,35c-.15-.25-.19-.59-.52-.72a5.55,5.55,0,0,0-.24-.56,8.64,8.64,0,0,0-1.25-1.95c0-.19-.09-.3-.17-.43-1-1.74-2.09-3.46-3-5.27C43.42,25.92,43.38,25.8,43.24,25.75Z" transform="translate(-12.79 -12.42)"/><path class="cls-10" d="M23.59,58.93c-1.15,0-1.17,0-.94-1.14s.44-2.48.74-3.71a16.15,16.15,0,0,0,.23-2,1.11,1.11,0,0,1,.07-.22c.13-.28.34-.32.63-.28,2.09.29,4.18.56,6.28.84,3,.39,5.92.75,8.88,1.17,1.9.27,3.8.61,5.7.91l3.8.89a.59.59,0,0,0,.37,0l.77.21c.36.24.77.34,1.06.79A5.21,5.21,0,0,1,52,59a1,1,0,0,1-.25.71c-1.08,1.4-2.26,2.72-3.44,4-3.31,3.49-6.81,6.77-10.33,10-.09.08-.2.16-.2.31a.25.25,0,0,0-.22.08c-1.58,1.52-3.24,3-4.75,4.56a.84.84,0,0,1-.21-.11c-1.63-1.53-3.26-3-4.88-4.59-.46-.44-.45-.44.07-.83.15-.11.39-.11.42-.36a.8.8,0,0,0,.54-.14c.66-.32,1.32-.65,2-1,1.28-.58,2.57-1.14,3.86-1.71A14.18,14.18,0,0,0,37,69c.13,0,.22,0,.32-.08a45.31,45.31,0,0,0,5.29-2.69,27,27,0,0,0,8.61-8.12c.33-.48.33-.49-.23-.7a26.8,26.8,0,0,0-8.5-1.62,34,34,0,0,0-6.91.61,10.69,10.69,0,0,0-2.43.55,11.15,11.15,0,0,0-2.84.65,2.42,2.42,0,0,0-.47,0l-3.61.8C25.38,58.6,24.48,58.76,23.59,58.93Z" transform="translate(-12.79 -12.42)"/><path class="cls-10" d="M80.88,34.17a.91.91,0,0,0,.59-.37c.29-.34.47-.16.6.12.26.55.51,1.11.75,1.66A35.66,35.66,0,0,0,85,40a2.83,2.83,0,0,1,.11.31c-.76.53-1.6.88-2.39,1.34l-3.61,2a5.69,5.69,0,0,0-.56.26c-4.09,2.26-8.18,4.53-12.4,6.53-1.46.66-2.92,1.33-4.43,1.87-.06,0-.09.08-.14.13l-.15.07a.33.33,0,0,0-.32,0,1.07,1.07,0,0,1-1,0A4.38,4.38,0,0,1,58,51a1.21,1.21,0,0,1-.3-.81c0-1.79.22-3.56.4-5.33s.52-3.72.85-5.57c.52-3,1.09-5.94,1.64-8.9.23-1.18.48-2.36.68-3.54a25.43,25.43,0,0,0,.52-3.26c1.17.14,2.35.27,3.52.42l2.91.35.52.08c.66.12.66.12.37.74a1,1,0,0,0-.17.5.92.92,0,0,0-.29.43c-.65,1.3-1.39,2.56-2.13,3.82a8.51,8.51,0,0,0-1,1.75A8.72,8.72,0,0,0,64.19,34c-.15,0-.2.15-.26.26a45,45,0,0,0-3.2,6.59A26.38,26.38,0,0,0,59,50.91c-.05.94-.05.94.84.63l0,0a24.87,24.87,0,0,0,6.78-3.08,36.41,36.41,0,0,0,7.09-6.2,2.66,2.66,0,0,0,.7-.89,10.1,10.1,0,0,0,1.77-2,.61.61,0,0,0,.16-.09c1.4-1.6,2.78-3.21,4.29-4.71A.5.5,0,0,0,80.88,34.17Z" transform="translate(-12.79 -12.42)"/><path class="cls-11" d="M36.07,39.59c-.89-1-1.77-2-2.66-3-.56-.6-1.13-1.18-1.7-1.78-.12-.13-.31-.24-.25-.48a39.81,39.81,0,0,1,4.14-4,34.32,34.32,0,0,1,7.64-4.65c.14.05.18.17.24.29.89,1.81,2,3.53,3,5.27.08.13.22.24.17.43s-.29.18-.45.25a26.53,26.53,0,0,0-5.73,3.35A29.33,29.33,0,0,0,36.07,39.59Z" transform="translate(-12.79 -12.42)"/><path class="cls-11" d="M23.59,58.93c.89-.17,1.79-.33,2.68-.52l3.61-.8a2.42,2.42,0,0,1,.47,0c0,.08,0,.16,0,.23a25.89,25.89,0,0,0,4.15,12.27c-1.29.57-2.58,1.13-3.86,1.71-.67.3-1.33.63-2,1a.8.8,0,0,1-.54.14,34.1,34.1,0,0,1-3.51-8.16A33.12,33.12,0,0,1,23.59,58.93Z" transform="translate(-12.79 -12.42)"/><path class="cls-11" d="M84.54,72.57a.62.62,0,0,1-.46-.09c-1.8-.92-3.66-1.72-5.53-2.49-.12,0-.26-.07-.3-.22s.09-.27.16-.39a25.53,25.53,0,0,0,3.74-12.21c1.43.32,2.87.63,4.3,1,.84.2,1.7.25,2.53.51-.08.66-.15,1.33-.25,2a32.66,32.66,0,0,1-4.1,11.77Z" transform="translate(-12.79 -12.42)"/><path class="cls-11" d="M65.58,31.63a8.51,8.51,0,0,1,1-1.75c.74-1.26,1.48-2.52,2.13-3.82a.92.92,0,0,1,.29-.43,33.36,33.36,0,0,1,11.91,8.54.5.5,0,0,1-.18.33c-1.51,1.5-2.89,3.11-4.29,4.71a.61.61,0,0,1-.16.09,1.81,1.81,0,0,1-.21-.18A25.8,25.8,0,0,0,67,32.27,7.85,7.85,0,0,1,65.58,31.63Z" transform="translate(-12.79 -12.42)"/><path class="cls-11" d="M49.07,87.92a17.2,17.2,0,0,1,.3-2.38c.17-1.32.25-2.65.37-4,0-.16-.06-.36.11-.49a3,3,0,0,1,.42.05A25.92,25.92,0,0,0,63,80.93c.08.8.18,1.59.25,2.39.11,1.33.28,2.65.46,4a5.63,5.63,0,0,1,0,.58,33.51,33.51,0,0,1-14.68.06Z" transform="translate(-12.79 -12.42)"/><path class="cls-11" d="M61.82,23.54a25.43,25.43,0,0,1-.52,3.26c-.2,1.18-.45,2.36-.68,3.54a25,25,0,0,0-6.74-.25l-2.2.22a17.94,17.94,0,0,1-.59-2.71c-.23-1.15-.43-2.3-.63-3.45a.61.61,0,0,0-.34-.51,35.07,35.07,0,0,1,5.6-.56A34.67,34.67,0,0,1,61.82,23.54Z" transform="translate(-12.79 -12.42)"/><path class="cls-11" d="M30.6,52.43c-2.1-.28-4.19-.55-6.28-.84-.29,0-.5,0-.63.28a32.83,32.83,0,0,1,3.5-11.22.52.52,0,0,1,.37.08L33,43.67c.09,0,.23.07.22.22s-.06.28-.12.4a25.71,25.71,0,0,0-1.39,3.35A21.73,21.73,0,0,0,30.6,52.43Z" transform="translate(-12.79 -12.42)"/><path class="cls-11" d="M79.12,43.62l3.61-2c.79-.46,1.63-.81,2.39-1.34a32.13,32.13,0,0,1,3,7.87,30.12,30.12,0,0,1,.6,3.12l-6.85.88c0-.14,0-.28,0-.42A26.33,26.33,0,0,0,79.12,43.62Z" transform="translate(-12.79 -12.42)"/><path class="cls-11" d="M32.76,78.75c1.51-1.59,3.17-3,4.75-4.56a.25.25,0,0,1,.22-.08c.14,0,.21.13.3.22a26.27,26.27,0,0,0,7,4.91c-.71,1.65-1.5,3.26-2.29,4.88-.21.45-.41.9-.61,1.35A31.65,31.65,0,0,1,32.76,78.75Z" transform="translate(-12.79 -12.42)"/><path class="cls-11" d="M75,73.91a12.17,12.17,0,0,1,2,1.75c.91.82,1.78,1.68,2.66,2.52a.45.45,0,0,0,.28.18.48.48,0,0,1-.14.44,33.57,33.57,0,0,1-9,6.52h-.05c-.59-1.24-1.19-2.49-1.78-3.74-.38-.82-.82-1.63-1.13-2.49a25,25,0,0,0,5.51-3.66A17.42,17.42,0,0,1,75,73.91Z" transform="translate(-12.79 -12.42)"/><path class="cls-11" d="M80,78.36l.12.09Z" transform="translate(-12.79 -12.42)"/><path class="cls-8" d="M63,80.93a25.92,25.92,0,0,1-12.74.19,3,3,0,0,0-.42-.05,12.74,12.74,0,0,1,.2-2.69c.18,0,.19-.21.24-.34.39-1,.77-2.07,1.17-3.11,1-2.52,1.93-5.05,3.16-7.47a.62.62,0,0,1,.7-.42,8.64,8.64,0,0,0,2,0,.78.78,0,0,1,1,.54c1.3,2.68,2.35,5.46,3.43,8.24a19.88,19.88,0,0,0,1.08,2.67A14.62,14.62,0,0,1,63,80.93Z" transform="translate(-12.79 -12.42)"/><path class="cls-8" d="M75,73.91a17.42,17.42,0,0,0-1.7,1.52,25,25,0,0,1-5.51,3.66,17.89,17.89,0,0,1-1-2.11C65,73.3,63.3,69.62,61.33,66.06a2.13,2.13,0,0,1-.08-.27,5.21,5.21,0,0,0,1.92-1.14,3,3,0,0,0,1.16-1.17c.27.1.41.35.6.54,3.09,3.24,6.36,6.29,9.63,9.35C74.73,73.53,75,73.64,75,73.91Z" transform="translate(-12.79 -12.42)"/><path class="cls-8" d="M45,79.24a26.27,26.27,0,0,1-7-4.91c-.09-.09-.16-.21-.3-.22s.11-.23.2-.31c3.52-3.28,7-6.56,10.33-10l.33.27a10.82,10.82,0,0,0,2.94,2c-1,2-2.05,3.93-3,5.91-1.11,2.27-2.16,4.56-3.24,6.84C45.18,78.91,45.08,79.07,45,79.24Z" transform="translate(-12.79 -12.42)"/><path class="cls-12" d="M51.53,66a10.82,10.82,0,0,1-2.94-2l-.33-.27c1.18-1.32,2.36-2.64,3.44-4A1,1,0,0,0,52,59a5.21,5.21,0,0,0-.77-2.58c-.29-.45-.7-.55-1.06-.79.05-.11.15-.09.24-.11a1.44,1.44,0,0,0,.26-2.77,1.43,1.43,0,0,0-1.68.58,1.58,1.58,0,0,0,.23,1.78c.08.09.21.15.18.31a.59.59,0,0,1-.37,0l-3.8-.89a9.71,9.71,0,0,1,.41-1.91,5.23,5.23,0,0,1,.81-1.8,19.36,19.36,0,0,1,2.21.91l2.75,1.06a.67.67,0,0,0,.6,0c.62-.34,1.35-.45,1.83-1.08s.87-.94.82-1.65c.2,0,.22.22.31.34a1.42,1.42,0,0,0,1.61.53,1.49,1.49,0,0,0,1-1.39,1.45,1.45,0,0,0-2.67-.7c-.08.13-.08.32-.28.37a4.78,4.78,0,0,1-.16-1.46c-.11-.92-.18-1.84-.27-2.77a12.54,12.54,0,0,1,2.45-.21,9.82,9.82,0,0,0,1.53.09c-.18,1.77-.38,3.54-.4,5.33A1.21,1.21,0,0,0,58,51a4.38,4.38,0,0,0,2.09,1.53,1.07,1.07,0,0,0,1,0,.33.33,0,0,1,.32,0c0,.24-.31.31-.31.55h0A.93.93,0,0,0,61,54.27l.1.19c.21.52.53.7,1.22.69a1.35,1.35,0,0,0,1.28-1,1.52,1.52,0,0,0-.44-1.48,2,2,0,0,0-1.6-.26s.08-.11.14-.13c1.51-.54,3-1.21,4.43-1.87a.55.55,0,0,0,0,.38,12.72,12.72,0,0,1,1.14,3.45c-1.66.37-3.32.72-5,1.19a1.67,1.67,0,0,0-.92.69,4.9,4.9,0,0,0-.79,2.72c0,.39.39.54.43.88a1.45,1.45,0,0,1-.54-.15A1.12,1.12,0,0,0,59.2,60h0c-.25,0-.33.22-.4.43A1.74,1.74,0,0,0,59,61.86l-.08.08a2.52,2.52,0,0,0-2-1.22,5,5,0,0,0-2.22.35c-.29.06-.3.51-.59.65V61.1a1.39,1.39,0,0,0-1.58-1.37A1.45,1.45,0,0,0,51.3,61.5a1.4,1.4,0,0,0,1.75,1c.21-.06.41-.15.62-.22a13.38,13.38,0,0,1-1.12,1.94C52.23,64.84,51.87,65.41,51.53,66Zm4.69-6a4.11,4.11,0,1,0-4.07-4.11A4.11,4.11,0,0,0,56.22,60Z" transform="translate(-12.79 -12.42)"/><path class="cls-12" d="M62.8,78.46a19.88,19.88,0,0,1-1.08-2.67c-1.08-2.78-2.13-5.56-3.43-8.24a.78.78,0,0,0-1-.54,8.64,8.64,0,0,1-2,0,.62.62,0,0,0-.7.42c-1.23,2.42-2.18,5-3.16,7.47-.4,1-.78,2.08-1.17,3.11,0,.13-.06.3-.24.34a35,35,0,0,1,.55-4.44,28.81,28.81,0,0,1,2.79-8.49A25.54,25.54,0,0,1,56,61.36c.39-.49.39-.49.76,0a26.3,26.3,0,0,1,4.14,7.54,39.35,39.35,0,0,1,1.89,9.49S62.81,78.43,62.8,78.46Z" transform="translate(-12.79 -12.42)"/><path class="cls-12" d="M64.33,63.48a3,3,0,0,1-1.16,1.17,5.21,5.21,0,0,1-1.92,1.14,6.93,6.93,0,0,1-.71-1.13c-.55-.9-1.09-1.81-1.64-2.72l.08-.08c1,.72,1.75.67,2.35-.11a1.88,1.88,0,0,0,.2-1.48,22.72,22.72,0,0,1,1.85,2.08A4.72,4.72,0,0,1,64.33,63.48Z" transform="translate(-12.79 -12.42)"/><path class="cls-8" d="M53.67,62.3c-.21.07-.41.16-.62.22a1.4,1.4,0,0,1-1.75-1,1.45,1.45,0,0,1,1.19-1.77,1.39,1.39,0,0,1,1.58,1.37v.62Zm-1-.07c.25-.06.63.15.8-.27s.4-.58.4-.92A1.3,1.3,0,0,0,52.64,60a1.32,1.32,0,0,0-1.19,1.17A1.41,1.41,0,0,0,52.71,62.23Z" transform="translate(-12.79 -12.42)"/><path class="cls-8" d="M82.15,57.17a25.53,25.53,0,0,1-3.74,12.21c-.07.12-.19.22-.16.39a9.4,9.4,0,0,1-2.59-1.1c0-.15-.14-.2-.24-.28-2.15-1.71-4.3-3.43-6.37-5.23a20.28,20.28,0,0,1-2.67-2.57,7.81,7.81,0,0,0,.85-2.82,1.56,1.56,0,0,1,.73-.19c2.52-.4,5.06-.52,7.59-.68,1.33-.08,2.66,0,4-.25A13.66,13.66,0,0,1,82.15,57.17Z" transform="translate(-12.79 -12.42)"/><path class="cls-8" d="M67.34,54.24a12.72,12.72,0,0,0-1.14-3.45.55.55,0,0,1,0-.38c4.22-2,8.31-4.27,12.4-6.53a5.69,5.69,0,0,1,.56-.26,26.33,26.33,0,0,1,2.74,8.09c0,.14,0,.28,0,.42-3.19.43-6.38.84-9.56,1.29C70.67,53.65,69,54,67.34,54.24Z" transform="translate(-12.79 -12.42)"/><path class="cls-11" d="M79.53,56.65c-1.32.21-2.65.17-4,.25-2.53.16-5.07.28-7.59.68a1.56,1.56,0,0,0-.73.19,2.25,2.25,0,0,0-1.11.27,1.61,1.61,0,0,0-.56,1.5,3.12,3.12,0,0,0,.82,1.05,20.28,20.28,0,0,0,2.67,2.57c2.07,1.8,4.22,3.52,6.37,5.23.1.08.22.13.24.28a5.22,5.22,0,0,1-1.56-.61,33.44,33.44,0,0,1-8.19-5.12,25.41,25.41,0,0,1-4.4-5c.36-.24.35-.63.4-1a21.76,21.76,0,0,1,4.76-1.22,25.63,25.63,0,0,1,5-.31,43.15,43.15,0,0,1,7.68,1.06C79.4,56.53,79.5,56.53,79.53,56.65Z" transform="translate(-12.79 -12.42)"/><path class="cls-8" d="M61.53,60.27a1.88,1.88,0,0,1-.2,1.48c-.6.78-1.37.83-2.35.11a1.74,1.74,0,0,1-.17-1.44c.07-.21.15-.39.4-.43-.09.31-.17.62-.26.92a.46.46,0,0,0,.06.45c.49.7.71.74,1.54.61.51-.09.56-.44.68-.8a.86.86,0,0,0-.19-1,1,1,0,0,0-1.33-.34,4.28,4.28,0,0,1-.51.15,1.12,1.12,0,0,1,1.36-.43,1.45,1.45,0,0,0,.54.15Z" transform="translate(-12.79 -12.42)"/><path class="cls-12" d="M61.91,57c0,.36,0,.75-.4,1C60.9,57.13,61,57.26,61.91,57Z" transform="translate(-12.79 -12.42)"/><path class="cls-8" d="M36.07,39.59a29.33,29.33,0,0,1,4.38-4.25A26.53,26.53,0,0,1,46.18,32c.16-.07.35-.08.45-.25a8.64,8.64,0,0,1,1.25,1.95,5.55,5.55,0,0,1,.24.56,1.13,1.13,0,0,0,.11.65c.57,2.21,1.17,4.4,1.73,6.61a30.65,30.65,0,0,1,.9,4.62,9.1,9.1,0,0,0-2.39,1.8,3.35,3.35,0,0,1-1.09-.49c-2.68-1.43-5.2-3.13-7.75-4.76a8.82,8.82,0,0,0-1.71-1A10.87,10.87,0,0,1,36.07,39.59Z" transform="translate(-12.79 -12.42)"/><path class="cls-8" d="M46.4,50.8a5.23,5.23,0,0,0-.81,1.8,9.71,9.71,0,0,0-.41,1.91c-1.9-.3-3.8-.64-5.7-.91-3-.42-5.92-.78-8.88-1.17a21.73,21.73,0,0,1,1.08-4.79,25.71,25.71,0,0,1,1.39-3.35c.06-.12.16-.24.12-.4.24-.06.39.11.57.21,3.93,2.16,7.85,4.35,11.89,6.28A1.7,1.7,0,0,1,46.4,50.8Z" transform="translate(-12.79 -12.42)"/><path class="cls-8" d="M58.13,44.81a9.82,9.82,0,0,1-1.53-.09,12.54,12.54,0,0,0-2.45.21c-.21-1.39-.42-2.79-.64-4.19-.51-3.3-1.17-6.58-1.8-9.86a1,1,0,0,1,0-.57l2.2-.22a25,25,0,0,1,6.74.25c-.55,3-1.12,5.92-1.64,8.9C58.65,41.09,58.41,43,58.13,44.81Z" transform="translate(-12.79 -12.42)"/><path class="cls-11" d="M50.86,46.13a30.65,30.65,0,0,0-.9-4.62c-.56-2.21-1.16-4.4-1.73-6.61a1.13,1.13,0,0,1-.11-.65c.33.13.37.47.52.72a33.67,33.67,0,0,1,4.14,10.35,26,26,0,0,1,.44,5.77c-.33.13-.73.19-.78.66a26.57,26.57,0,0,1-8.6-4.36,37.85,37.85,0,0,1-5.7-5.4c-.09-.11-.23-.19-.22-.36a8.82,8.82,0,0,1,1.71,1c2.55,1.63,5.07,3.33,7.75,4.76a3.35,3.35,0,0,0,1.09.49,1.68,1.68,0,0,0,.65.3c.31.08.62.26,1,0,.55-.36,1-.76.82-1.51A3.13,3.13,0,0,1,50.86,46.13Z" transform="translate(-12.79 -12.42)"/><path class="cls-8" d="M54.58,49.16c.2,0,.2-.24.28-.37a1.45,1.45,0,0,1,2.67.7,1.49,1.49,0,0,1-1,1.39,1.42,1.42,0,0,1-1.61-.53c-.09-.12-.11-.32-.31-.34Zm2.69.66A1.36,1.36,0,0,0,56,48.35c-.33,0-1,.7-1,1a1.42,1.42,0,0,0,1.34,1.45C56.52,50.79,57.28,50,57.27,49.82Z" transform="translate(-12.79 -12.42)"/><path class="cls-12" d="M52.44,51.75c.05-.47.45-.53.78-.66a.28.28,0,0,1,0,.09C53.23,52,53.23,52,52.44,51.75Z" transform="translate(-12.79 -12.42)"/><path class="cls-8" d="M34.55,70.06A25.89,25.89,0,0,1,30.4,57.79c0-.07,0-.15,0-.23a11.15,11.15,0,0,1,2.84-.65.67.67,0,0,0,.54.16c2.48,0,5,.23,7.42.42a32.18,32.18,0,0,1,3.78.44.45.45,0,0,1,.43.41,8,8,0,0,0,.71,2.1.62.62,0,0,1-.18.86c-2.63,2.62-5.58,4.87-8.44,7.2-.16.13-.37.22-.41.46A14.18,14.18,0,0,1,34.55,70.06Z" transform="translate(-12.79 -12.42)"/><path class="cls-12" d="M37,69c0-.24.25-.33.41-.46,2.86-2.33,5.81-4.58,8.44-7.2a.62.62,0,0,0,.18-.86,8,8,0,0,1-.71-2.1.45.45,0,0,0-.43-.41,32.18,32.18,0,0,0-3.78-.44c-2.47-.19-4.94-.37-7.42-.42a.67.67,0,0,1-.54-.16,10.69,10.69,0,0,1,2.43-.55,34,34,0,0,1,6.91-.61A26.8,26.8,0,0,1,51,57.37c.56.21.56.22.23.7a27,27,0,0,1-8.61,8.12,45.31,45.31,0,0,1-5.29,2.69C37.26,68.93,37.17,69,37,69Z" transform="translate(-12.79 -12.42)"/><path class="cls-8" d="M49.35,55.42c0-.16-.1-.22-.18-.31a1.58,1.58,0,0,1-.23-1.78,1.43,1.43,0,0,1,1.68-.58,1.44,1.44,0,0,1-.26,2.77c-.09,0-.19,0-.24.11Zm1.08-.14a1.68,1.68,0,0,0,1-1.06,1.37,1.37,0,0,0-1.5-1.29,2,2,0,0,0-1,1A1.38,1.38,0,0,0,50.43,55.28Z" transform="translate(-12.79 -12.42)"/><path class="cls-8" d="M65.58,31.63a7.85,7.85,0,0,0,1.38.64A25.8,25.8,0,0,1,76,39.12a1.81,1.81,0,0,0,.21.18,10.1,10.1,0,0,1-1.77,2c-.19,0-.31.14-.46.24-2.47,1.62-4.94,3.26-7.49,4.76a15.92,15.92,0,0,1-2.69,1.39A7.91,7.91,0,0,0,61.44,46a3.75,3.75,0,0,1,.14-1.33c.59-3.24,1.51-6.41,2.35-9.59A3.56,3.56,0,0,0,64.19,34,8.72,8.72,0,0,1,65.58,31.63Z" transform="translate(-12.79 -12.42)"/><path class="cls-11" d="M64.19,34a3.56,3.56,0,0,1-.26,1.16c-.84,3.18-1.76,6.35-2.35,9.59A3.75,3.75,0,0,0,61.44,46a2.06,2.06,0,0,0-.11,1c0,.5.82,1.27,1.26,1.19a2.7,2.7,0,0,0,1.25-.45,15.92,15.92,0,0,0,2.69-1.39c2.55-1.5,5-3.14,7.49-4.76.15-.1.27-.25.46-.24a2.66,2.66,0,0,1-.7.89,36.41,36.41,0,0,1-7.09,6.2,24.87,24.87,0,0,1-6.78,3.08,1.28,1.28,0,0,0-.88-.6,26.38,26.38,0,0,1,1.7-10.1,45,45,0,0,1,3.2-6.59C64,34.11,64,34,64.19,34Z" transform="translate(-12.79 -12.42)"/><path class="cls-8" d="M61.13,53c0-.24.31-.31.31-.55l.15-.07a2,2,0,0,1,1.6.26,1.52,1.52,0,0,1,.44,1.48,1.35,1.35,0,0,1-1.28,1c-.69,0-1-.17-1.22-.69l.75.42a.57.57,0,0,0,.4.11,1.21,1.21,0,0,0,1.09-1.33.79.79,0,0,0-.38-.75,1,1,0,0,0-1.42-.08A1.75,1.75,0,0,1,61.13,53Z" transform="translate(-12.79 -12.42)"/><path class="cls-12" d="M59,50.91a1.28,1.28,0,0,1,.88.6l0,0C59,51.85,59,51.85,59,50.91Z" transform="translate(-12.79 -12.42)"/><path class="cls-8" d="M56.22,60a4.11,4.11,0,1,1,4.15-4.08A4.13,4.13,0,0,1,56.22,60Z" transform="translate(-12.79 -12.42)"/><path class="cls-11" d="M61.13,53a1.75,1.75,0,0,0,.44-.2,1,1,0,0,1,1.42.08.79.79,0,0,1,.38.75A1.21,1.21,0,0,1,62.28,55a.57.57,0,0,1-.4-.11l-.75-.42-.1-.19c0-.41.07-.83.11-1.24Z" transform="translate(-12.79 -12.42)"/><path class="cls-8" d="M61.14,53c0,.41-.07.83-.11,1.24A.93.93,0,0,1,61.14,53Z" transform="translate(-12.79 -12.42)"/><path class="cls-11" d="M52.71,62.23a1.41,1.41,0,0,1-1.26-1.08A1.32,1.32,0,0,1,52.64,60,1.3,1.3,0,0,1,53.91,61c0,.34-.27.61-.4.92S53,62.17,52.71,62.23Z" transform="translate(-12.79 -12.42)"/><path class="cls-12" d="M66.38,60.59a3.12,3.12,0,0,1-.82-1.05,1.61,1.61,0,0,1,.56-1.5,2.25,2.25,0,0,1,1.11-.27A7.81,7.81,0,0,1,66.38,60.59Z" transform="translate(-12.79 -12.42)"/><path class="cls-11" d="M59.2,60a4.28,4.28,0,0,0,.51-.15,1,1,0,0,1,1.33.34.86.86,0,0,1,.19,1c-.12.36-.17.71-.68.8-.83.13-1,.09-1.54-.61a.46.46,0,0,1-.06-.45c.09-.3.17-.61.26-.92Z" transform="translate(-12.79 -12.42)"/><path class="cls-12" d="M50.86,46.13a3.13,3.13,0,0,0,0,.62c.15.75-.27,1.15-.82,1.51-.34.23-.65.05-1,0a1.68,1.68,0,0,1-.65-.3A9.1,9.1,0,0,1,50.86,46.13Z" transform="translate(-12.79 -12.42)"/><path class="cls-11" d="M57.27,49.82c0,.22-.75,1-1,1a1.42,1.42,0,0,1-1.34-1.45c0-.31.7-1,1-1A1.36,1.36,0,0,1,57.27,49.82Z" transform="translate(-12.79 -12.42)"/><path class="cls-11" d="M50.43,55.28A1.38,1.38,0,0,1,49,54a2,2,0,0,1,1-1,1.37,1.37,0,0,1,1.5,1.29A1.68,1.68,0,0,1,50.43,55.28Z" transform="translate(-12.79 -12.42)"/><path class="cls-12" d="M63.84,47.73a2.7,2.7,0,0,1-1.25.45c-.44.08-1.22-.69-1.26-1.19a2.06,2.06,0,0,1,.11-1A7.91,7.91,0,0,1,63.84,47.73Z" transform="translate(-12.79 -12.42)"/><path class="cls-13" d="M269.84,80q-2.1-11.58-5-24.19l5-.52,2.93,18.82q2.25-9.87,3.68-17.87l4.75.58q-3.6,15.57-5.37,23Z" transform="translate(-12.79 -12.42)"/><path class="cls-13" d="M285.51,80q-2.1-11.58-5-24.19l5-.52,2.94,18.82q2.25-9.87,3.67-17.87l4.76.58q-3.62,15.57-5.38,23Z" transform="translate(-12.79 -12.42)"/><path class="cls-13" d="M311.8,65.16l-3.9,0c-.06-2.91-.79-4.43-2.2-4.58h-.31c-1.26,0-2.28.83-3.05,2.49a17,17,0,0,0-1.17,7.05v.76c.07,3.41,1.26,5.11,3.59,5.11q2.4,0,2.4-3.91c0-.26,0-.53,0-.81l-3.41,0,.17-3.86,8.77.14v4.2l-1.75,0q0,9-7.14,9-6.61,0-6.61-10.54c0-.58,0-1.2.05-1.84q.6-12.37,7.88-12.89l.69,0q6.06,0,6.06,8.17C311.85,64.17,311.83,64.65,311.8,65.16Z" transform="translate(-12.79 -12.42)"/><path class="cls-13" d="M327.5,64.83l-3.81,0v-.47q0-4-2.26-4c-1.62,0-2.42,2.48-2.42,7.45,0,5.6.84,8.4,2.54,8.4h0c1.7,0,2.54-1.39,2.54-4.13V70.38h4.26v1.28q0,8.55-7,9h-.41q-6.62,0-6.61-12.7,0-12.44,6.8-12.43,6.4,0,6.4,8.31C327.52,64.13,327.52,64.48,327.5,64.83Z" transform="translate(-12.79 -12.42)"/><path class="cls-13" d="M336,62.63c3.76.21,5.65,2.1,5.65,5.68V80.5l-4,.07-.14-1.63a4.15,4.15,0,0,1-3.28,1.41,7.42,7.42,0,0,1-1.89-.27c-2-.51-3-2.08-3-4.71a9.58,9.58,0,0,1,.06-1q.33-4.07,5.78-4.07a17.58,17.58,0,0,1,2.3.16v-2q0-2.43-1.53-2.43h-.29c-1.11,0-1.66.9-1.66,2.71V69l-4.09-.35q0-6,5.77-6Zm1.44,13.57v-3a6.78,6.78,0,0,0-1.34-.15,2.2,2.2,0,0,0-2.13,1,2.45,2.45,0,0,0-.34,1.18,1.63,1.63,0,0,0,.55,1.22,1.58,1.58,0,0,0,1.12.41A4.83,4.83,0,0,0,337.46,76.2Z" transform="translate(-12.79 -12.42)"/><path class="cls-13" d="M347.61,68.45l.17,12.45-4.21,0q0-7.89-.53-17.73l3.16-.34.17,2.79a3.62,3.62,0,0,1,3.37-2.35l.75,0a3.8,3.8,0,0,1,3.16,1.35q1.26,1.62,1.27,5.14l-3.81.37c0-.19,0-.38,0-.56,0-1.83-.48-2.75-1.43-2.75h-.07A2,2,0,0,0,347.61,68.45Z" transform="translate(-12.79 -12.42)"/><path class="cls-13" d="M356.35,80.25c.06-3,.1-6.09.1-9.24q0-7.24-.24-15a37.08,37.08,0,0,1,5.18-.42,11,11,0,0,1,5.33,1q2.76,1.6,2.76,6.54v.57c-.12,3.62-.93,5.93-2.46,7a10.55,10.55,0,0,1-5.63,1.62c0,.35,0,.72,0,1.1,0,1.9.09,4.15.29,6.74ZM360.74,60l.12,8.39q3.19-.16,3.74-2.28a7.25,7.25,0,0,0,.26-2,9.14,9.14,0,0,0-.34-2.44,2.39,2.39,0,0,0-2.58-1.84A6.07,6.07,0,0,0,360.74,60Z" transform="translate(-12.79 -12.42)"/><path class="cls-13" d="M377.81,62.63c3.76.21,5.65,2.1,5.65,5.68V80.5l-4,.07-.13-1.63A4.16,4.16,0,0,1,376,80.35a7.36,7.36,0,0,1-1.89-.27q-3-.77-3-4.71c0-.32,0-.66.05-1q.34-4.07,5.79-4.07a17.69,17.69,0,0,1,2.3.16v-2q0-2.43-1.53-2.43h-.29c-1.11,0-1.67.9-1.67,2.71V69l-4.08-.35q0-6,5.77-6Zm1.44,13.57v-3a6.78,6.78,0,0,0-1.34-.15,2.2,2.2,0,0,0-2.13,1,2.45,2.45,0,0,0-.34,1.18,1.63,1.63,0,0,0,.55,1.22,1.55,1.55,0,0,0,1.11.41A4.82,4.82,0,0,0,379.25,76.2Z" transform="translate(-12.79 -12.42)"/><path class="cls-13" d="M389.4,68.45l.17,12.45-4.21,0q0-7.89-.53-17.73l3.16-.34.17,2.79a3.62,3.62,0,0,1,3.36-2.35l.76,0a3.82,3.82,0,0,1,3.16,1.35,8.52,8.52,0,0,1,1.27,5.14l-3.81.37c0-.19,0-.38,0-.56,0-1.83-.47-2.75-1.42-2.75h-.07A2,2,0,0,0,389.4,68.45Z" transform="translate(-12.79 -12.42)"/><path class="cls-13" d="M400.73,57.65l3.89-.25v5.68L407.9,63l.05,3.25-3.33.15V74.2c0,1.82.77,2.73,2.32,2.73a5.12,5.12,0,0,0,1.05-.12l-.16,3.78a12.34,12.34,0,0,1-1.56.1q-5.43,0-5.53-5.59V66.7l-2.81.17L397.86,63l2.88,0Z" transform="translate(-12.79 -12.42)"/><path class="cls-13" d="M409.17,74.67l3.93-.19v.22c0,1.76.55,2.66,1.63,2.68h.07c1.06,0,1.58-.51,1.58-1.53v-.12c0-1.12-1.08-2-3.11-2.71s-3.26-1.84-3.67-3.47a6.46,6.46,0,0,1-.22-1.65,5.08,5.08,0,0,1,.74-2.68,4.39,4.39,0,0,1,3.43-2.16c.41,0,.81-.07,1.2-.07a6.38,6.38,0,0,1,2.7.54,4.23,4.23,0,0,1,2.21,2.11,5.06,5.06,0,0,1,.41,2.09,8.71,8.71,0,0,1-.08,1.13l-3.68.09a5.67,5.67,0,0,0,.05-.79c0-1.14-.36-1.76-1.09-1.84H415a1.5,1.5,0,0,0-1.53,1.15,2.23,2.23,0,0,0-.14.72,1.7,1.7,0,0,0,.76,1.39,13.52,13.52,0,0,0,3.15,1.67,4.75,4.75,0,0,1,3.06,4.44,5.3,5.3,0,0,1-.75,2.63,4.83,4.83,0,0,1-3.73,2.45,6.74,6.74,0,0,1-1.08.09,6.63,6.63,0,0,1-3.5-1Q409.2,78.61,409.17,74.67Z" transform="translate(-12.79 -12.42)"/><text class="cls-14" transform="translate(175.96 32.8)">интернет-каталог автомобильных запчастей</text></svg>